<svg width="30" height="46" viewbox="0 0 30 46" xmlns="http://www.w3.org/2000/svg">
    <path fill="#fff" d="M.5 31.5c.27 1.1.46 2.22.64 3.35.18 1.12.27 2.26.34 3.4.06 1.14.1 2.28.02 3.44-.07 1.14-.21 2.31-.55 3.44l-.61-.59c2.99-1.02 5.99-2 9.01-2.94 3.03-.9 6.06-1.82 9.13-2.59-2.92 1.22-5.89 2.31-8.86 3.4-2.98 1.06-5.97 2.08-8.98 3.05-.25.08-.52-.05-.61-.3-.03-.09-.03-.19 0-.29.3-1.03.49-2.13.6-3.23.09-1.1.17-2.22.17-3.35.01-1.12-.04-2.25-.08-3.38-.04-1.12-.13-2.25-.23-3.38zm0 13.5c1.81-1.36 3.55-2.82 5.21-4.36 1.67-1.52 3.28-3.11 4.81-4.76 3.07-3.3 5.92-6.82 8.39-10.59 2.53-3.72 4.67-7.71 6.45-11.86 1.78-4.14 3.13-8.47 4.11-12.91-.27 2.25-.74 4.48-1.28 6.7-.59 2.2-1.29 4.37-2.11 6.5-1.65 4.25-3.83 8.3-6.33 12.12-2.57 3.77-5.45 7.34-8.68 10.57-3.22 3.21-6.71 6.19-10.58 8.59z"/>
</svg>
