<svg width="40" height="53" viewbox="0 0 40 53" xmlns="http://www.w3.org/2000/svg">
    <path transform="translate(41 55) rotate(180)" fill="#fff" d="M33.33 43.33l1.56 2.79 1.58 2.76c.53.91 1.11 1.8 1.68 2.67.29.43.6.85.92 1.23.16.19.33.36.5.51.15.15.38.21.3.2l.1.96c-2.94.08-5.88.11-8.83.1-2.94-.04-5.89-.07-8.84-.25 2.94-.29 5.88-.44 8.82-.59 2.94-.11 5.88-.2 8.83-.22h.05c.26 0 .48.21.48.47 0 .25-.19.46-.44.48-.63.05-.87-.25-1.11-.42-.23-.2-.42-.42-.59-.64-.35-.44-.65-.89-.94-1.35-.58-.91-1.06-1.87-1.55-2.83-.47-.96-.94-1.92-1.35-2.9-.41-.98-.83-1.96-1.19-2.97zm-32.67-42.67c.48 2.82 1.11 5.61 1.87 8.37.73 2.76 1.59 5.48 2.57 8.16 1.96 5.35 4.34 10.56 7.42 15.35 3 4.82 6.72 9.21 11.11 12.81 4.38 3.61 9.51 6.31 15 7.96-2.8-.62-5.52-1.58-8.13-2.81-2.59-1.25-5.06-2.78-7.35-4.55-4.58-3.54-8.36-8.02-11.48-12.87-3.05-4.9-5.48-10.17-7.3-15.63-1.8-5.46-3.15-11.08-3.72-16.79z"/>
</svg>
