<svg width="44" height="33" viewbox="0 0 44 33" xmlns="http://www.w3.org/2000/svg">
    <g fill="white">
        <path d="M32.855 2.351c1.135.102 2.275.113 3.418.109 1.142-.018 2.291-.056 3.433-.217 1.141-.158 2.289-.375 3.4-.789l-.641-.574c-.817 3.055-1.582 6.124-2.309 9.202-.695 3.086-1.395 6.172-1.952 9.294 1.019-3.003 1.896-6.043 2.777-9.081.85-3.047 1.661-6.103 2.421-9.172.066-.26-.091-.523-.351-.589-.099-.025-.201-.017-.29.015-1.013.38-2.092.646-3.189.829-1.098.176-2.211.326-3.333.407-1.121.094-2.248.111-3.378.152-1.127.033-2.259.02-3.395.004 1.12.201 2.252.311 3.387.409zm0 0" id="Shape"/>
        <path d="M38.948 6.503c-1.4 1.778-2.873 3.494-4.421 5.14-3.083 3.298-6.391 6.39-9.982 9.118-3.543 2.788-7.373 5.203-11.385 7.265-4.01 2.072-8.24 3.721-12.594 5.008 2.23-.436 4.425-1.051 6.594-1.752 2.154-.743 4.275-1.592 6.341-2.565 4.133-1.945 8.018-4.403 11.656-7.166 3.586-2.829 6.947-5.951 9.94-9.396 2.982-3.445 5.714-7.131 7.84-11.154-1.231 1.908-2.565 3.741-3.987 5.503zm0 0"/>
    </g>
</svg>
