<svg width="187" height="22" viewbox="0 0 187 22" xmlns="http://www.w3.org/2000/svg" preserveAspectRatio="xMinYMin">
    <g fill="white" transform="rotate(90 99 98) translate(0 9)">
        <path d="M3.6 175.64c.84.76 1.62 1.58 2.39 2.42.77.83 1.48 1.72 2.18 2.63.68.91 1.36 1.84 1.93 2.84.57.99 1.1 2.04 1.46 3.16l-.84-.15c1.91-2.51 3.86-5 5.85-7.46 2.01-2.44 4.02-4.88 6.14-7.23-1.74 2.64-3.61 5.2-5.47 7.76-1.88 2.53-3.8 5.05-5.76 7.53-.16.21-.47.24-.68.08-.07-.06-.13-.14-.16-.23-.32-1.03-.77-2.04-1.3-3.02-.53-.97-1.09-1.94-1.72-2.88-.61-.94-1.29-1.84-1.94-2.76-.66-.91-1.36-1.8-2.07-2.68zM19.72 12.58c-.84-.76-1.62-1.58-2.39-2.42-.77-.83-1.48-1.72-2.18-2.63-.68-.91-1.36-1.84-1.93-2.84-.57-.99-1.1-2.04-1.46-3.16l.84.15c-1.91 2.51-3.86 5-5.85 7.46-2.01 2.44-4.02 4.88-6.14 7.23 1.74-2.64 3.61-5.2 5.47-7.76 1.88-2.53 3.8-5.05 5.76-7.53.16-.21.47-.24.68-.08.07.06.13.14.16.23.32 1.03.77 2.05 1.3 3.02.53.97 1.09 1.94 1.72 2.88.61.94 1.29 1.84 1.94 2.76.66.91 1.36 1.79 2.07 2.68zM11.66 2.66l.24 22.91.14 22.91.11 45.83-.11 45.83-.14 22.91-.24 22.91-.24-22.91-.14-22.91-.11-45.83.11-45.83.14-22.91.24-22.91z"/>
    </g>
</svg>
