<svg width="39" height="88" viewbox="0 0 39 88" xmlns="http://www.w3.org/2000/svg">
    <path fill="white" transform="translate(-34 29) rotate(-33 17 0)" d="M12 46.66c-1.62 2.13-3.33 4.19-5.05 6.24-1.7 2.06-3.47 4.07-5.24 6.08l-.05-.71c1.06.81 2.27 1.53 3.51 2.13 1.24.61 2.54 1.08 3.88 1.44 1.33.35 2.72.55 4.11.57 1.39.05 2.79-.12 4.17-.42-1.31.52-2.73.81-4.16.92-1.43.08-2.88-.02-4.3-.3-1.42-.27-2.79-.75-4.11-1.34-1.31-.61-2.56-1.31-3.73-2.22-.21-.16-.25-.46-.08-.68l.02-.02c1.78-1.99 3.57-3.98 5.42-5.91 1.83-1.94 3.68-3.88 5.61-5.74zm-10.67 12c4.25-.03 8.5-.41 12.7-1.03 4.2-.6 8.36-1.47 12.44-2.64 8.13-2.32 16.02-5.78 22.76-10.88 3.38-2.51 6.48-5.42 9.15-8.69 2.67-3.26 4.88-6.89 6.68-10.72 1.78-3.83 3.09-7.88 3.97-12.03.92-4.14 1.38-8.38 1.59-12.63.01 4.26-.34 8.52-1.11 12.73-.79 4.2-2.03 8.32-3.75 12.25-3.43 7.87-9.06 14.75-15.93 19.9-6.91 5.12-14.9 8.63-23.16 10.82-8.27 2.16-16.83 3.24-25.35 2.94z"/>
</svg>
