<svg width="801" height="212" viewbox="0 0 801 212" xmlns="http://www.w3.org/2000/svg">
    <path fill="white" d="M713.87 200.87l-3.60 3.73-.14.14-.10-.18c-1.88-3.44-4.42-6.52-7.20-9.29-2.80-2.75-5.98-5.11-9.41-7.00-3.42-1.90-7.11-3.32-10.91-4.23-3.80-.92-7.73-1.30-11.65-1.32l-4.44-.01 4.31-1.05c4.16-1.02 8.29-2.33 12.32-3.85 4.02-1.52 7.98-3.28 11.62-5.57 1.81-1.14 3.54-2.43 5.03-3.96.75-.75 1.42-1.59 2.00-2.48.55-.88.98-1.92 1.62-2.81 2.47-3.63 5.91-6.45 9.60-8.75 7.39-4.54 16.52-6.54 25.14-4.67 4.29.90 8.37 2.70 12.03 5.11 3.66 2.40 6.94 5.37 9.82 8.66l-.19-.14 19.86 8.67 19.82 8.77 1.17.52-1.13.59c-6.64 3.47-13.33 6.84-19.99 10.27l-10.00 5.12c-3.33 1.69-6.66 3.43-10.01 5.10l-.05.02-.05-.00-10.5-.17v-.12l10.5-.17-.10.02c3.28-1.80 6.60-3.54 9.90-5.31l9.91-5.29c6.61-3.51 13.20-7.09 19.83-10.56l.03 1.11-19.84-8.72-19.79-8.82-.11-.05-.08-.09c-2.81-3.23-5.94-6.21-9.49-8.62-3.53-2.41-7.48-4.23-11.66-5.19-4.17-.96-8.55-1.05-12.78-.28-4.23.76-8.31 2.36-12.00 4.58-3.67 2.23-7.02 5.11-9.41 8.67-.61.87-1.01 1.86-1.59 2.82-.58.93-1.26 1.81-2.01 2.60-1.50 1.60-3.24 2.95-5.06 4.16-3.64 2.41-7.61 4.27-11.65 5.90-4.05 1.59-8.19 2.92-12.43 3.99l-.12-1.07c7.98-.01 16.05 1.87 23.01 5.85 3.46 1.99 6.64 4.47 9.44 7.32 2.78 2.85 5.21 6.06 7.01 9.63l-.24-.04 3.73-3.60.08.08z M709.18 157.27c-7.69.26-15.39.20-23.08.23l-5.8-.05-2.89-.01c-.48.00-.96.01-1.43.03-.47.00-.87.1-1.35.22-1.85.48-3.70 1.08-5.52 1.71-1.83.62-3.65 1.25-5.46 1.95l-2.71 1.03-1.34.53-.66.27-.33.14-.13.06.00-.02.08.05.23.20c.18.13.37.25.58.37.41.23.83.44 1.27.64.86.39 1.76.75 2.66 1.09 3.60 1.34 7.29 2.48 11.03 3.32 1.86.40 3.76.74 5.61.78 1.87-.04 3.86-.08 5.78-.08 3.87-.01 7.75.04 11.62.17l-.41.18c2.03-2.18 4.06-4.37 6.13-6.52 2.02-2.13 4.06-4.24 6.12-6.34zm.19-.02c-1.90 2.30-3.82 4.58-5.77 6.84-1.93 2.27-3.89 4.52-5.86 6.76l-.15.17-.25.00-11.6.04-5.82.04c-2.01-.08-3.94-.47-5.84-.91-3.80-.92-7.49-2.18-11.07-3.72-.89-.38-1.77-.79-2.65-1.24-.43-.22-.86-.45-1.29-.72-.21-.13-.42-.27-.62-.43-.10-.08-.20-.17-.30-.27-.07-.11-.25-.23-.18-.58.03-.16.23-.27.25-.27l.19-.08.34-.12.68-.25 1.36-.50 2.72-.99c3.65-1.30 7.24-2.70 10.94-3.93.44-.14.99-.29 1.48-.32.49-.04.97-.07 1.46-.10l2.91-.12c1.93-.06 3.87-.08 5.81-.08 7.74.07 15.48.22 23.22.73l.12.00-.07.09z M658.33 163.10c3.81-.42 7.63-.54 11.45-.44 1.91.08 3.81.26 5.72.31 1.90.04 3.81-.03 5.72-.13 3.81-.23 7.63-.31 11.45-.31 3.81.06 7.63.20 11.45.59v.12c-3.81.38-7.63.53-11.45.59-3.81-.00-7.63-.08-11.45-.31-1.91-.10-3.82-.18-5.72-.13-1.91.04-3.81.22-5.72.31-3.81.09-7.63-.02-11.45-.44v-.12z M745.78 152.37c-2.21-2.78-4.38-5.61-6.49-8.47-1.05-1.43-2.09-2.88-3.08-4.36-.96-1.49-2.00-2.95-2.65-4.65l.11.08-7.31.02-3.65.01c-1.25-.02-2.45-.28-3.63-.63-2.34-.71-4.56-2.06-6.09-4.03-1.54-1.95-2.29-4.44-2.46-6.89-.11-4.89-.01-9.76-.60-14.59-.31-2.39-.75-4.82-1.84-6.93-.54-1.04-1.31-1.98-2.32-2.53-.50-.27-1.05-.44-1.63-.52-.56-.06-1.18-.05-1.79-.07l-58.49-1.2c-38.99-.74-77.99-1.39-117.00-1.88l-58.50-.60c-19.50-.17-39.00-.28-58.50-.21-9.75.03-19.5.11-29.24.32-9.74.17-19.47.72-29.22 1.04-9.74.34-19.49.61-29.25.80-4.87.10-9.75.17-14.61.35-2.42.10-4.86.20-7.23.61-1.17.21-2.33.52-3.32 1.12-.99.59-1.78 1.49-2.54 2.43l.07-.17c-.49 5.09-.91 10.19-1.23 15.30-.15 2.55-.28 5.10-.33 7.66-.03 2.54-.09 5.13.28 7.60l.05.34-.34.00c-4.94.12-9.91.89-14.80 1.81-4.89.95-9.74 2.15-14.53 3.55-9.58 2.79-18.94 6.33-28.07 10.36l-.04.02-.05-.00c-9.92-.52-19.90-.17-29.83.40-9.93.63-19.85 1.61-29.73 2.86-19.76 2.50-39.38 6.04-58.82 10.34-38.89 8.62-77.08 20.28-114.44 34.06l-.12-.80 88.12 3.20 44.06 1.64 22.03.82 11.01.41 5.50.20c1.78.09 3.66.01 5.48.03l176.36-.69 176.36-.48 176.36-.30v.12l-176.36 1.02-176.36.84-176.36.62c-1.84-.01-3.65.06-5.53-.03l-5.50-.20-11.01-.41-22.03-.83-44.06-1.68-88.11-3.45-2.10-.08 1.98-.72c37.43-13.67 75.67-25.25 114.61-33.81 19.46-4.26 39.11-7.76 58.89-10.23 9.89-1.22 19.81-2.19 29.76-2.80 9.94-.60 19.91-.98 29.89-.47l-.10.01c9.13-4.06 18.50-7.63 28.10-10.46 4.8-1.41 9.65-2.63 14.57-3.60 4.91-.94 9.86-1.72 14.91-1.86l-.29.35c-.39-2.59-.33-5.16-.30-7.72.05-2.56.17-5.12.31-7.68.30-5.11.71-10.22 1.19-15.33l.00-.09.06-.07c.76-.95 1.60-1.93 2.71-2.59 1.10-.66 2.34-.99 3.55-1.22 2.44-.42 4.88-.52 7.32-.63 4.88-.19 9.75-.27 14.62-.39 9.74-.21 19.49-.50 29.23-.87 9.74-.34 19.48-.91 29.23-1.10 9.75-.22 19.50-.33 29.26-.39 39.01-.20 78.02.18 117.02.78 39.00.58 78.00 1.32 117.00 2.15l58.49 1.33c.61.02 1.20.00 1.85.08.63.08 1.26.28 1.82.59 1.14.62 1.96 1.67 2.53 2.78 1.13 2.24 1.55 4.71 1.86 7.13.56 4.86.44 9.78.52 14.62.14 2.39.86 4.79 2.34 6.69 1.46 1.90 3.60 3.22 5.89 3.94 1.14.35 2.35.61 3.53.64l3.65.01 7.31.02h.08l.03.08c.61 1.63 1.64 3.12 2.6 4.61.98 1.48 2.01 2.93 3.05 4.37 2.09 2.87 4.24 5.71 6.44 8.51l-.09.07z M696.99 190.72c-3.48-.22-6.97-.17-10.46-.01-3.48.17-6.95.45-10.4.81-3.43.39-6.89.83-10.19 1.83-1.63.51-3.25 1.15-4.61 2.19-1.35 1.01-2.35 2.56-2.30 4.27l-.18-.18c4.03-.01 8.06-.08 12.09-.19s8.06-.16 12.09-.20c8.06-.09 16.12-.13 24.18.14l-.36.68c-1.25-1.93-2.65-3.81-4.20-5.53-.77-.86-1.61-1.67-2.53-2.37-.92-.68-1.95-1.31-3.10-1.44zm.01-.12c1.2.10 2.24.75 3.20 1.41.96.68 1.83 1.46 2.69 2.27 1.69 1.63 3.22 3.41 4.66 5.29l.50.65-.86.03c-8.06.28-16.12.24-24.18.14-4.03-.03-8.06-.09-12.09-.20-4.03-.11-8.06-.18-12.09-.19l-.18-.00-.00-.18c-.01-.90.19-1.81.62-2.61.43-.79 1.05-1.47 1.75-2.03 1.39-1.13 3.02-1.91 4.67-2.52 3.33-1.21 6.82-1.86 10.31-2.22 3.49-.36 7.01-.39 10.50-.30 3.50.09 6.99.28 10.47.48z M664.83 193.39c-32.54.27-65.08.30-97.62.39-32.54.15-65.08.00-97.62-.07l-48.81-.14-24.40-.05-24.40.05-97.62.28.03-.00-33.93 2.46-16.96 1.22-4.24.30c-1.46.11-2.84.09-4.27.14l-8.50.19-17.00.39-8.50.19-4.25.1c-.71.01-1.39.04-2.15.03l-2.12-.03-34.01-.57-68.03-1.4-34.01-.70-34.01-.80.00-.12 34.02.37 34.02.47 68.03.96 34.01.60 2.12.03c.66.00 1.40-.02 2.10-.03l4.25-.09 8.50-.19 17.00-.38 8.50-.19c1.40-.05 2.86-.02 4.22-.13l4.24-.30 16.96-1.20 33.93-2.38.02-.00h.01l97.62.28 24.40.05 24.40-.05 48.81-.14c32.54-.07 65.08-.23 97.62-.07 32.54.09 65.08.11 97.62.39v.12h-.00z M48.72 179.33c.45 1.47.59 2.96.53 4.45-.06.74-.24 1.49-.27 2.23-.03.74.05 1.48.17 2.22.13.74.24 1.48.28 2.22.05.74.12 1.48.11 2.22-.02 1.48-.14 2.97-.50 4.47l-.12.00c-.42-1.47-.59-2.96-.67-4.44-.03-.74.00-1.48.03-2.23.01-.74.09-1.48.19-2.23.09-.74.15-1.48.09-2.23-.05-.74-.26-1.48-.35-2.22-.12-1.48-.02-2.97.36-4.46l.12-.00z M175.72 183.00c-.09.26-.33.28-.51.36-.19.06-.38.11-.58.15-.38.08-.78.14-1.17.21-.78.13-1.57.22-2.35.33-1.57.21-3.15.37-4.73.52-3.16.31-6.33.41-9.50.37-3.17-.06-6.33-.24-9.50-.38-1.58-.07-3.16-.13-4.75-.25-.79-.06-1.58-.13-2.37-.23-.39-.05-.79-.11-1.19-.22-.20-.05-.40-.11-.61-.20-.10-.04-.21-.10-.32-.18-.10-.08-.25-.23-.26-.48 0-.24.15-.41.25-.50.10-.09.21-.15.31-.20.20-.10.40-.17.60-.24.4-.12.79-.21 1.19-.29.79-.16 1.58-.26 2.38-.35 1.58-.17 3.17-.28 4.76-.35 3.17-.14 6.34-.20 9.51-.16 3.17.05 6.34.16 9.50.48 1.58.15 3.15.32 4.73.53.78.11 1.57.20 2.35.33.39.06.78.12 1.17.21.19.04.38.09.57.15.17.08.41.09.51.37l.00.01zm-.11-.01c-.02-.11-.26-.2-.43-.25-.18-.05-.37-.10-.56-.14-.38-.07-.77-.14-1.16-.18-.78-.08-1.57-.15-2.36-.18-1.57-.06-3.16-.09-4.74-.08l-9.47-.01c-3.15-.00-6.31-.04-9.46.01-1.57.03-3.15.07-4.71.17-.78.05-1.56.11-2.33.21-.38.05-.76.11-1.12.19-.18.04-.35.09-.50.16l-.22.09c-.05-.09.05.07.20.13.14.07.32.14.50.19.36.11.74.19 1.12.27.76.15 1.54.25 2.33.32 1.56.15 3.14.25 4.72.28 3.16.05 6.32-.1 9.48-.20 3.15-.09 6.31-.14 9.47-.12 1.58-.00 3.16-.02 4.74-.09.79-.02 1.57-.10 2.36-.18.39-.04.78-.10 1.16-.18.19-.04.38-.08.56-.14.16-.05.40-.13.43-.26l.00.01z M237.20 147.02c3-.57 6.00-1.00 9.02-1.40 3.00-.44 6.04-.61 9.06-.94 1.50-.17 3.00-.44 4.46-.82.72-.18 1.47-.40 2.08-.74.14-.07.29-.20.29-.24l-.01.05-.13-.08c-.27-.13-.64-.21-1.00-.27-1.45-.23-2.97-.35-4.47-.45-1.50-.10-3.02-.18-4.53-.23l.26-.04c-2.45.99-4.93 1.93-7.43 2.80-2.49.90-5.01 1.73-7.55 2.50l-.02-.11zm-.01.00c2.38-1.17 4.79-2.29 7.23-3.33 2.42-1.06 4.87-2.07 7.35-3.02l.13-.05.12.01c3.04.25 6.08.42 9.11 1.19.38.11.75.22 1.15.45.09.06.20.13.30.26.11.11.17.41.06.58-.18.30-.39.36-.57.46-.75.32-1.49.47-2.24.65-1.49.32-2.99.57-4.49.88-2.98.62-5.98 1.23-9.02 1.49-3.03.30-6.07.51-9.12.51l-.25-.00.22-.11z M302.89 96.93l-.69 9.04c-.21 2.98-.44 5.97-.56 8.96-.12 2.98-.31 5.97-.25 8.95.04 1.48.10 2.98.39 4.43.15.72.34 1.44.65 2.09.30.63.81 1.24 1.50 1.22l.02.35c-1.93.32-3.88.54-5.84.72-.98.08-1.96.14-2.96.13-.99-.03-1.99-.01-3.05-.51l-.20-.09-.00-.26c-.11-3.41-.15-6.82-.14-10.24.00-3.41.05-6.83.26-10.24.09-1.70.22-3.41.43-5.12.10-.85.21-1.70.37-2.56.18-.86.29-1.69.78-2.60.58-.75 1.14-1.35 1.84-1.94.68-.57 1.47-1.01 2.29-1.32 1.65-.60 3.36-.82 5.05-1.01l.07-.00zm-.13.14c-1.63.36-3.28.72-4.77 1.4-.75.34-1.44.78-2.03 1.34-.58.54-1.14 1.24-1.56 1.85-.30.60-.44 1.49-.57 2.30-.11.82-.19 1.66-.26 2.51-.12 1.68-.21 3.38-.28 5.07-.27 6.79-.40 13.60-.50 20.42l-.21-.35c.70.39 1.72.49 2.66.56.96.06 1.93.05 2.90.01 1.94-.06 3.89-.29 5.81-.56l.02.35c-.42 0-.83-.18-1.14-.45-.31-.27-.52-.60-.71-.95-.35-.69-.57-1.43-.74-2.17-.33-1.48-.53-2.98-.65-4.49-.24-3.01-.27-6.03-.10-9.04.18-3.00.44-6.00.80-8.99.36-2.95.78-5.90 1.36-8.82z M735.58 138.64l-54.09 1.02-54.09.88-54.09.88-54.09.71-108.18 1.34c-18.03.19-36.06.50-54.09.79l-54.09.87.03-.00c-1.39.07-2.64-.54-3.58-1.44-.94-.90-1.56-2.06-1.99-3.24-.85-2.38-1.05-4.90-1.07-7.38l-.00-.29.29-.05 6.49-1.26.03-.00.03-.00 101.80-2.28 101.81-2.15c33.93-.76 67.87-1.31 101.81-1.95l101.82-1.77.00.11-101.80 2.47c-33.93.77-67.87 1.63-101.81 2.29l-101.81 2.09-101.81 1.96.06-.00-6.50 1.23.29-.35c.00 2.42.19 4.88.99 7.14.40 1.11.97 2.18 1.81 2.99.80.80 1.96 1.33 3.04 1.28l.05-.00-.01.00 54.09-.68c18.03-.23 36.06-.43 54.09-.76l108.18-1.78 54.09-.84 54.09-.67 54.09-.67 54.09-.54.00.11z M718.98 151.55c-2.35-.56-4.61-1.61-6.58-3.09-1.95-1.49-3.58-3.39-4.83-5.51-2.51-4.26-3.55-9.18-3.98-14.02-.18-2.43-.18-4.87-.08-7.30.12-2.42.38-4.84.71-7.24.33-2.40.76-4.78 1.23-7.16.45-2.37.97-4.74 1.54-7.09l.03-.15.15.02c6.00.84 12.01 1.62 18.02 2.37 6.01.75 12.02 1.57 18.02 2.39l.27.03.13.23c1.91 3.34 3.32 6.86 4.38 10.53 1.04 3.65 1.66 7.44 1.75 11.25.07 3.80-.38 7.63-1.45 11.28-1.10 3.64-2.78 7.10-4.99 10.16l-.04.05-.05.02c-1.66.62-3.35 1.11-5.06 1.53l-.03-.11c1.67-.51 3.34-1.10 4.93-1.80l-.09.07c2.00-3.15 3.56-6.57 4.49-10.17.96-3.58 1.32-7.31 1.16-11.01-.14-3.70-.80-7.38-1.81-10.94-1.02-3.55-2.38-7.07-4.16-10.27l.41.27c-5.99-.89-11.98-1.80-17.97-2.77-5.98-.97-11.97-1.91-17.97-2.79l.19-.13c-1.07 4.70-1.93 9.46-2.40 14.25-.25 2.39-.39 4.79-.46 7.19-.07 2.39-.04 4.8.16 7.18.34 4.75 1.34 9.53 3.63 13.70 2.23 4.18 6.12 7.46 10.75 8.89l-.03.11z M744.49 107.55c-4.46.06-8.91-.09-13.34-.41-2.21-.19-4.42-.45-6.65-.52-1.11-.03-2.22-.02-3.32.04-.54.03-1.11.08-1.60.22-.10.02-.25.11-.22.09l.02-.12-.00-.03.10.06c.20.10.46.19.72.27 4.26 1.02 8.7 1.62 13.06 2.42 4.37.81 8.74 1.65 13.08 2.70l-.01.11c-4.45-.31-8.87-.88-13.27-1.58-2.19-.36-4.38-.80-6.56-1.27-2.18-.48-4.35-.97-6.49-1.77-.26-.10-.53-.21-.81-.38l-.22-.18c-.03-.04-.08-.10-.11-.21-.02-.11.02-.25.07-.32.22-.22.36-.20.52-.25.59-.10 1.14-.11 1.70-.14 1.12-.03 2.23-.00 3.35-.01 2.22-.00 4.46-.08 6.69-.06 4.45.12 8.89.54 13.30 1.27l-.00.11z M747.83 117.72c-4.23.36-8.46.51-12.69.50-2.11-.03-4.23-.14-6.34-.07-1.05.03-2.11.12-3.15.26-.52.06-1.04.14-1.53.28-.22.05-.53.18-.55.23.03.00.03-.17.01-.16l.07.04.31.12c1.96.50 4.11.67 6.19.95l6.29.70c4.19.53 8.39 1.08 12.57 1.84l-.01.11c-4.25-.02-8.48-.30-12.70-.72-2.10-.22-4.21-.52-6.30-.85-1.05-.16-2.09-.35-3.14-.57-1.04-.22-2.08-.46-3.12-.87-.13-.05-.26-.11-.40-.20-.07-.05-.14-.10-.23-.21-.11-.09-.10-.43.02-.53.19-.19.33-.20.47-.26l.41-.1c.54-.09 1.07-.14 1.60-.20 1.06-.1 2.12-.14 3.17-.23 2.11-.15 4.22-.39 6.34-.52 4.23-.18 8.48-.06 12.71.35v.11h-.00z M749.16 129.05c-4.28.48-8.57.75-12.86.85-2.14.01-4.30-.03-6.44.07-1.07.05-2.14.16-3.20.30-.53.06-1.06.14-1.57.25-.26.05-.51.11-.76.18-.22.06-.53.17-.6.24l.04-.06c.02-.05.00-.14-.01-.16l.03.00.31.10c.23.06.49.11.75.15.51.07 1.04.14 1.57.20 1.05.11 2.12.20 3.18.30l6.41.49c4.27.39 8.55.79 12.81 1.41l-.00.11c-4.31.12-8.61-.01-12.90-.28-2.14-.15-4.28-.38-6.43-.64-1.07-.12-2.14-.28-3.20-.48-.53-.09-1.06-.20-1.60-.34-.26-.07-.53-.14-.80-.24-.13-.05-.27-.10-.42-.19-.07-.05-.16-.09-.27-.25-.05-.07-.08-.24-.04-.36.04-.11.10-.18.15-.22.36-.25.60-.25.89-.32.27-.05.54-.09.81-.12l1.61-.17 3.22-.27c2.14-.20 4.28-.48 6.42-.67 4.29-.29 8.6-.29 12.90 0l.00.11z M739.52 144.16c.49-.34.94-.40 1.37-.26.21.09.41.31.62.37.21.06.44.03.67-.05.46-.18.91-.19 1.36-.15.43.10.86.28 1.26.70l-.01.11c-.48.32-.94.41-1.39.42-.44-.05-.88-.16-1.29-.45-.20-.13-.42-.21-.65-.20-.22.01-.46.17-.69.22-.45.03-.88-.13-1.27-.58l.01-.11z M747.33 140.22c-.82.42-1.65.56-2.48.50-.41-.06-.84-.23-1.26-.25-.41-.02-.83.05-1.24.18-.82.27-1.65.37-2.48.42-.83-.01-1.67-.09-2.52-.41l-.00-.11c.80-.43 1.63-.61 2.46-.71.83-.03 1.67-.01 2.52.18.42.09.84.13 1.25.08.41-.05.82-.25 1.24-.34.83-.11 1.67-.02 2.51.35v.11z M703.49 98.44l28.65-3.38-.09.09 14.61-94.06.49.58c-12.27.11-24.55.07-36.83.11l-36.83.07.26-.11-45.46 49.54.01-.01c-2.15 2.63-4.72 4.84-7.38 6.91-2.67 2.05-5.50 3.9-8.43 5.57-5.85 3.34-12.09 5.99-18.49 8.09-6.40 2.1-12.98 3.65-19.62 4.77-3.32.57-6.66.96-9.99 1.43-3.32.46-6.65.95-9.97 1.46-13.28 2.06-26.50 4.50-39.68 7.17-13.17 2.68-26.32 5.50-39.38 8.65l-.12-1.06 57.07.89c19.02.31 38.05.53 57.07.97l114.13 2.28zm.00.11l-114.15-1.38c-19.02-.17-38.05-.56-57.07-.85l-57.07-.94-4.29-.07 4.17-.99c13.09-3.12 26.24-5.99 39.44-8.59 13.20-2.58 26.45-4.94 39.76-6.93 3.32-.49 6.65-.96 9.99-1.40 3.33-.44 6.67-.81 9.98-1.37 6.62-1.08 13.17-2.6 19.56-4.66 6.38-2.06 12.6-4.67 18.44-7.97 2.91-1.65 5.74-3.47 8.41-5.50 2.64-2.03 5.22-4.24 7.34-6.81l.01-.01h.00l45.20-49.78.10-.11.15-.00 36.83-.26c12.27-.06 24.55-.21 36.83-.21h.59l-.09.58-15.38 93.93-.01.08-.08.01-28.67 3.28z M636.32 70.02c5.85-.80 11.71-1.47 17.58-2.05 2.93-.31 5.87-.57 8.81-.81 2.94-.23 5.88-.41 8.83-.61l.02-.00h.00c1.58.04 3.16.07 4.75.08 1.58.00 3.16.05 4.75.02 3.16-.00 6.33-.05 9.5-.13l2.12-.05-2.01.67c-4.37 1.45-8.87 2.30-13.39 2.95-4.52.64-9.08 1.06-13.64 1.24-4.56.18-9.13.13-13.68-.05-4.55-.20-9.10-.58-13.62-1.14l-.44-.05.44-.06zm.01 0c4.55.19 9.09.31 13.63.34 4.54.04 9.08-.06 13.61-.27 4.53-.21 9.05-.53 13.55-1.09 4.48-.58 8.99-1.26 13.33-2.47l.10.62c-3.16-.07-6.33-.12-9.5-.13-1.58-.02-3.16.01-4.75.02-1.58.00-3.16.03-4.75.08l.02-.00c-2.93.33-5.85.70-8.79 1.01-2.93.30-5.87.58-8.81.81-5.87.50-11.76.92-17.66 1.19l-.00-.11z M475.69 94.64c10.70-1.76 21.42-3.45 32.16-5.05l16.10-2.38c5.37-.74 10.74-1.53 16.12-2.23l16.13-2.14 16.11-2.26c10.73-1.56 21.45-3.25 32.18-4.88l-.03.00c2.03-.64 4.05-1.72 5.96-2.82 1.92-1.11 3.79-2.34 5.62-3.62 3.66-2.55 7.17-5.34 10.58-8.24 6.79-5.83 13.24-12.07 19.46-18.54 6.19-6.48 12.24-13.11 18.08-19.93 5.87-6.79 11.59-13.71 17.24-20.70l.09.07c-5.37 7.19-10.93 14.27-16.66 21.19-5.77 6.89-11.66 13.69-17.89 20.19-6.21 6.50-12.65 12.82-19.56 18.61-3.45 2.89-7.00 5.67-10.73 8.23-1.86 1.27-3.78 2.47-5.75 3.58-1.99 1.08-3.97 2.13-6.24 2.80l-.01.00-.02.00c-10.75 1.47-21.51 2.88-32.25 4.42l-16.10 2.38-16.08 2.51c-5.35.85-10.73 1.61-16.09 2.42l-16.11 2.26c-10.74 1.50-21.50 2.91-32.27 4.25l-.01-.11z M688.37 1.61c-1.52 2.23-3.12 4.41-4.73 6.58-1.60 2.17-3.26 4.29-4.9 6.45l-.41-.84c5.55-.05 11.11.38 16.66.38 5.55.03 11.11-.25 16.66-.30 5.55-.05 11.11-.13 16.66-.02 5.55.12 11.11.23 16.66.57v.11c-5.55.30-11.11.38-16.66.48-5.55.08-11.11-.02-16.66-.10-5.55-.08-11.11-.39-16.66-.38-5.55-.02-11.11.38-16.66.30l-1.08-.01.67-.83c1.70-2.09 3.36-4.22 5.09-6.29 1.72-2.07 3.46-4.14 5.26-6.16l.09.07z M742.33 30.55c-6.44.14-12.88.28-19.33.35-6.44.10-12.88.12-19.33.17-6.44.06-12.88.03-19.33.00l-19.33-.19.18-.08-7.04 8.63-6.97 8.69-13.84 17.46-.32-.68c8.36-.10 16.72-.16 25.08-.20 8.36-.07 16.72-.04 25.08-.05 8.36-.01 16.72.08 25.08.11 8.36.08 16.72.18 25.08.33v.11c-8.36.18-16.72.31-25.08.41-8.36.06-16.72.19-25.08.20-8.36.02-16.72.07-25.08.03-8.36-.01-16.72-.04-25.08-.12l-.88-.00.55-.67 14.16-17.20 7.02-8.64 6.95-8.70.06-.08.11-.00 19.33-.27c6.44-.05 12.88-.11 19.33-.07 6.44.02 12.88.00 19.33.08 6.44.04 12.88.15 19.33.26v.12h.00z M649.95 64.63c1.28-2.01 2.63-3.98 3.99-5.94 1.33-1.97 2.76-3.88 4.14-5.82 2.75-3.89 5.83-7.54 8.74-11.31l.11-.14.14.08c3.63 2.02 7.35 3.88 11.08 5.72 3.73 1.83 7.41 3.76 11.10 5.67 3.68 1.92 7.34 3.89 10.95 5.95 3.63 2.02 7.22 4.11 10.78 6.27l-.05.10c-3.77-1.75-7.51-3.58-11.21-5.47-3.71-1.86-7.39-3.80-11.04-5.79-3.64-2.00-7.29-3.99-10.89-6.07-3.60-2.07-7.21-4.14-10.91-6.03l.26-.05c-2.75 3.89-5.34 7.90-8.25 11.68-1.45 1.88-2.85 3.81-4.35 5.67-1.47 1.87-2.96 3.73-4.50 5.55l-.09-.06z M706.66 36.10c2.90-.17 5.80-.26 8.70-.33 2.90-.08 5.80-.08 8.70-.12 2.90-.02 5.80.04 8.70.14 2.90.09 5.80.17 8.70.19l.21.00-.03.21c-.23 1.45-.4 2.91-.60 4.37-.20 1.45-.35 2.92-.53 4.38-.33 2.92-.66 5.85-1.04 8.78l-.09.71-.65-.34-8.13-4.28c-2.70-1.43-5.39-2.90-8.07-4.39l-7.99-4.53c-2.65-1.53-5.30-3.07-7.91-4.68l-.16-.09.18-.01zm.27.12c2.68 1.27 5.35 2.60 8.00 3.94l8.17 4.21c2.71 1.42 5.41 2.87 8.09 4.35l8.03 4.46-.74.37c.45-2.91.96-5.81 1.45-8.72.23-1.45.50-2.90.71-4.36.21-1.45.46-2.91.64-4.37l.18.21c-2.90.01-5.80.09-8.70.19-2.90.09-5.80.16-8.70.14-2.90-.04-5.80-.04-8.70-.12-2.81-.07-5.62-.16-8.43-.32z M675.99 35.77c3.02-.10 6.05-.19 9.08-.25 3.02-.04 6.05-.13 9.08-.14h.11l.10.05c3.66 1.97 7.35 3.89 10.98 5.90 3.65 1.99 7.26 4.04 10.87 6.10 3.60 2.07 7.23 4.09 10.88 6.10 3.65 1.98 7.31 3.95 11.00 5.87l.19.10-.05.22-1.41 5.35-.07.27-.29-.00-6.50-.06-.10-.00-.10-.05-13.56-7.13c-4.52-2.37-9.01-4.80-13.5-7.25l-13.41-7.40c-4.45-2.49-8.90-5.01-13.32-7.57l-.17-.10.20-.00zm.26.12c4.49 2.23 8.97 4.51 13.44 6.81l13.58 7.09c4.51 2.38 9.02 4.79 13.5 7.25l13.43 7.36-.21-.05 6.49.26-.36.27 1.58-5.30.13.32c-3.61-2.05-7.26-4.05-10.91-6.04-3.66-1.96-7.33-3.91-11.03-5.81-3.69-1.91-7.38-3.83-11.03-5.81-3.66-1.95-7.28-4.01-10.93-6.01l.21.05c-3.02-.01-6.05-.09-9.08-.14-2.94-.05-5.88-.14-8.82-.24z M690.95 9.12c.94-1.39 1.94-2.73 2.99-4.04.52-.65 1.05-1.30 1.59-1.93.53-.64 1.08-1.27 1.65-1.88l.17-.18.20.00c1.93.07 3.86.29 5.79.31 1.93.04 3.86-.07 5.79-.19l1.86-.11-1.71.84c-1.47.72-2.96 1.40-4.47 2.06-1.49.67-2.99 1.33-4.52 1.94-1.52.61-3.06 1.16-4.60 1.74-1.55.54-3.10 1.07-4.69 1.53l-.16.04.09-.13zm.35-.18c1.33-.73 2.69-1.41 4.05-2.08 1.48-.68 2.96-1.40 4.47-2.05 1.50-.66 3.02-1.25 4.56-1.85 1.52-.6 3.06-1.18 4.61-1.72l.14.73c-1.93-.12-3.86-.23-5.79-.19-1.93.02-3.86.23-5.79.31l.37-.17c-.52.65-1.07 1.28-1.63 1.90-.55.62-1.12 1.24-1.69 1.85-1.06 1.12-2.17 2.21-3.31 3.27z M745.01 1.22c-1.80.85-3.64 1.60-5.49 2.33-1.85.71-3.71 1.40-5.61 1.98-1.90.56-3.83 1.05-5.72 1.67-1.88.62-3.73 1.34-5.57 2.09l-.11-.64c1.94-.11 3.88-.18 5.83-.22 1.94-.04 3.88-.08 5.83-.06 1.94.01 3.88.09 5.83.16 1.94.09 3.88.20 5.83.39v.11c-1.94.19-3.88.30-5.83.39-1.94.07-3.89.15-5.83.16-1.94.02-3.88-.02-5.83-.06-1.94-.03-3.89-.11-5.83-.22l-1.96-.11 1.85-.53c1.90-.55 3.80-1.14 5.67-1.82 1.86-.68 3.68-1.50 5.52-2.23 1.85-.72 3.73-1.33 5.63-1.93 1.90-.57 3.80-1.13 5.75-1.58l.03.11z M699.83 9.25c2.02-.14 4.05-.23 6.08-.29 2.13-.09 4.27-.08 6.41-.12l-.17.03c3.44-1.40 6.98-2.55 10.50-3.76 1.75-.61 3.50-1.24 5.22-1.94 1.73-.67 3.45-1.38 5.16-2.11l.11.59c-2.72.11-5.44.20-8.16.25-2.72.03-5.44.12-8.16.12l.24-.05c-2.88 1.32-5.80 2.58-8.72 3.82-1.45.63-2.93 1.22-4.39 1.83-1.36.56-2.74 1.10-4.12 1.63zm-.36.02c1.40-.74 2.81-1.49 4.23-2.2 1.42-.71 2.83-1.44 4.26-2.12 2.85-1.39 5.71-2.77 8.60-4.09l.11-.05.13-.00c2.72-.02 5.44.02 8.16.04 2.72.02 5.44.08 8.16.17l1.66.05-1.55.53c-1.75.60-3.51 1.22-5.25 1.88-1.74.63-3.47 1.33-5.18 2.05-3.42 1.45-6.82 2.97-10.32 4.23l-.09.03-.08-.00c-2.13-.04-4.27-.02-6.41-.12-2.13-.06-4.27-.15-6.41-.31l-.19-.01.17-.09z M479.83 94.51c17.51-.78 35.03-1.4 52.55-1.89 17.52-.47 35.05-.89 52.58-1.08 17.53-.17 35.06-.12 52.59-.07 8.76.06 17.53.11 26.29.28 4.38.09 8.76.22 13.14.40 4.38.20 8.76.41 13.14 1.05l.74.10-.53.54-4.39 4.44-.12.12-.18-.00-51.46-.59-25.73-.35-25.72-.44c-17.15-.26-34.30-.69-51.45-1.07l-25.72-.58-25.72-.70-.00-.14zm.00 0l25.73.15 25.73.26c17.15.18 34.31.32 51.46.63l25.72.40 25.72.49 51.45 1.11-.30.12 4.44-4.39.21.65c-4.29-.68-8.67-.95-13.04-1.21-4.37-.25-8.75-.39-13.12-.50-8.75-.22-17.52-.31-26.28-.28-17.52-.00-35.05.41-52.57.76l-105.15 1.93-.00-.14z"/>

    <path fill="white" transform="translate(169 155)" d="M54.94 29.1c.01 7.10-2.67 14.25-7.69 19.48-2.47 2.63-5.53 4.70-8.87 6.13-3.33 1.44-6.99 2.08-10.61 2.07-3.62-.05-7.22-.83-10.52-2.28-3.29-1.45-6.29-3.53-8.81-6.07-2.49-2.56-4.54-5.56-5.93-8.87-1.37-3.30-2.17-6.86-2.21-10.47-.18-7.20 2.70-14.48 7.85-19.64 2.55-2.58 5.62-4.67 8.98-6.09 3.35-1.43 7.02-2.11 10.65-2.10 3.63.02 7.29.70 10.63 2.16 3.33 1.44 6.38 3.54 8.86 6.17 4.98 5.24 7.74 12.38 7.67 19.49zm-.14 0c-.04-3.53-.74-7.07-2.17-10.29-1.42-3.22-3.49-6.14-6.02-8.53-5.06-4.81-11.91-7.56-18.83-7.53-6.90.01-13.76 2.79-18.69 7.67-4.95 4.85-7.91 11.68-8.02 18.69-.16 6.99 2.66 14.08 7.72 18.99 4.98 5.00 12.05 7.65 18.99 7.52 6.95-.04 13.79-2.84 18.84-7.66 2.53-2.40 4.59-5.32 6.02-8.54 1.43-3.22 2.15-6.76 2.15-10.30z M51.09 29.10c.01 6.1-2.29 12.24-6.60 16.72-4.24 4.53-10.49 7.17-16.72 7.05-3.11-.04-6.20-.72-9.03-1.96-2.83-1.24-5.40-3.03-7.56-5.21-2.14-2.2-3.90-4.78-5.09-7.61-1.18-2.83-1.86-5.89-1.90-8.99-.15-6.18 2.32-12.43 6.74-16.85 2.19-2.22 4.82-4.01 7.71-5.23 2.88-1.22 6.01-1.83 9.16-1.83 6.25-.01 12.48 2.64 16.73 7.18 4.3 4.49 6.61 10.63 6.59 16.73zm-.12 0c.03-6.10-2.66-12.07-7.03-16.17-4.34-4.13-10.22-6.49-16.17-6.44-5.91-.01-11.81 2.37-16.04 6.56-4.25 4.16-6.79 10.02-6.88 16.05-.13 6 2.28 12.08 6.63 16.30 4.28 4.29 10.35 6.57 16.30 6.45 5.97-.05 11.83-2.44 16.18-6.57 2.17-2.06 3.94-4.57 5.17-7.33 1.23-2.76 1.84-5.80 1.85-8.84z M589.24 27.95c.01 7.10-2.67 14.25-7.69 19.48-2.47 2.63-5.53 4.70-8.87 6.13-3.33 1.44-6.99 2.08-10.61 2.07-3.62-.05-7.22-.83-10.52-2.28-3.29-1.45-6.29-3.53-8.81-6.07-2.49-2.56-4.54-5.56-5.93-8.87-1.37-3.30-2.17-6.86-2.21-10.47-.18-7.20 2.70-14.48 7.85-19.64 2.55-2.58 5.62-4.67 8.98-6.09 3.35-1.43 7.02-2.11 10.65-2.10 3.63.02 7.29.70 10.63 2.16 3.33 1.44 6.38 3.54 8.86 6.17 4.98 5.24 7.74 12.38 7.67 19.49zm-.14 0c-.04-3.53-.74-7.07-2.17-10.29-1.42-3.22-3.49-6.14-6.02-8.53-5.06-4.81-11.91-7.56-18.83-7.53-6.90.01-13.76 2.79-18.69 7.67-4.94 4.85-7.91 11.68-8.02 18.69-.16 6.99 2.65 14.08 7.72 18.99 4.98 5.00 12.05 7.65 18.99 7.52 6.95-.04 13.79-2.84 18.84-7.66 2.53-2.40 4.59-5.32 6.02-8.54 1.43-3.22 2.15-6.76 2.15-10.30z M585.39 27.95c.01 6.1-2.29 12.24-6.60 16.72-4.24 4.53-10.49 7.17-16.72 7.05-3.11-.04-6.20-.72-9.03-1.96-2.83-1.24-5.40-3.03-7.56-5.21-2.14-2.2-3.90-4.78-5.09-7.61-1.18-2.83-1.86-5.89-1.90-8.99-.15-6.18 2.32-12.43 6.74-16.85 2.19-2.22 4.82-4.01 7.71-5.23 2.88-1.22 6.01-1.83 9.16-1.83 6.25-.01 12.48 2.64 16.73 7.18 4.29 4.49 6.61 10.63 6.59 16.73zm-.12 0c.03-6.10-2.66-12.07-7.03-16.17-4.34-4.13-10.22-6.49-16.17-6.44-5.91-.01-11.81 2.37-16.03 6.56-4.25 4.16-6.79 10.02-6.88 16.05-.13 6 2.28 12.08 6.63 16.30 4.28 4.29 10.35 6.57 16.30 6.45 5.97-.05 11.83-2.44 16.18-6.57 2.17-2.06 3.94-4.57 5.17-7.33 1.23-2.76 1.84-5.80 1.85-8.84z M574.21 27.96c-.00 3.16-1.10 6.39-3.33 8.81-2.18 2.44-5.50 3.87-8.82 3.77-1.62-.04-3.27-.43-4.74-1.11-1.47-.68-2.80-1.64-3.92-2.79-2.25-2.29-3.63-5.41-3.73-8.69-.13-3.23 1.13-6.58 3.46-8.94 2.30-2.38 5.59-3.81 8.96-3.78 3.30.00 6.64 1.44 8.81 3.90 2.21 2.43 3.32 5.66 3.31 8.83zm-.12-.00c.02-3.16-1.47-6.22-3.76-8.25-2.29-2.03-5.23-3.20-8.27-3.17-2.96.00-5.96 1.17-8.12 3.29-2.16 2.10-3.50 5.04-3.61 8.14-.12 3.06 1.1 6.22 3.34 8.39 2.24 2.18 5.37 3.27 8.41 3.17 3.01-.06 5.98-1.25 8.26-3.30 2.27-2.04 3.78-5.09 3.74-8.27z M567.06 26.33c-.01 1.30-.35 2.69-1.25 3.80-.87 1.13-2.36 1.79-3.80 1.70-1.45-.08-2.76-.84-3.67-1.83-.92-.98-1.55-2.27-1.65-3.67-.13-1.39.36-2.89 1.39-3.94.99-1.06 2.45-1.73 3.94-1.71 1.47.01 2.95.68 3.82 1.83.89 1.12 1.24 2.50 1.24 3.82zm-.12-.00c.01-1.31-.71-2.53-1.68-3.25-.97-.71-2.10-1.12-3.25-1.09-1.13.01-2.27.42-3.12 1.21-.84.79-1.42 1.90-1.53 3.12-.11 1.22.33 2.53 1.27 3.39.93.87 2.23 1.19 3.39 1.09 1.17-.07 2.28-.49 3.26-1.22.96-.73 1.70-1.94 1.67-3.26z"/>

</svg>
