<svg width="248" height="93" xmlns="http://www.w3.org/2000/svg">
    <g stroke="white" fill="none">
        <path d="M3.169 3.215s143.281-14.764 244.281 28.236c0 0-65.062 34.693-244.281 14.597"/>
        <path d="M5.669 8.145s110.142-11.326 187.781 21.662c0 0-50.014 26.617-187.781 11.199"/>
        <path d="M6.669 15.433s73.189-7.03 124.781 13.445c0 0-33.234 16.521-124.781 6.95"/>
        <path d="M.169 57.955s143.281-10.181 244.281 19.471c0 0-65.062 23.925-244.281 10.066"/>
        <path d="M19.895 64.885s102.384-6.742 174.556 12.898c0 0-46.491 15.848-174.556 6.667"/>
        <path d="M18.395 70.41s66.312-3.879 113.056 7.42c0 0-30.111 9.116-113.056 3.836"/>
    </g>
</svg>
