<svg width="16" height="20" viewbox="0 0 16 20" xmlns="http://www.w3.org/2000/svg">
    <path d="M12.133.052c-.762.845-1.59 1.625-2.426 2.398-.835.775-1.729 1.484-2.635 2.18-.912.687-1.844 1.361-2.846 1.932-.997.578-2.04 1.105-3.17 1.462l.154-.846c2.518 1.913 5.003 3.87 7.464 5.856 2.441 2.013 4.886 4.022 7.239 6.147-2.646-1.748-5.202-3.613-7.761-5.473-2.539-1.887-5.054-3.804-7.536-5.764-.211-.166-.247-.471-.082-.683.063-.08.146-.135.236-.163 1.032-.325 2.05-.771 3.028-1.3.976-.533 1.946-1.097 2.882-1.72.945-.612 1.845-1.291 2.764-1.949.915-.664 1.8-1.369 2.689-2.077z" fill="white"/>
</svg>
