<svg width="236" height="56" viewbox="0 0 236 56" xmlns="http://www.w3.org/2000/svg">
    <path fill="white" d="M235.97 1.17c-9.95-.41-19.91.09-29.84.72-9.93.69-19.83 1.72-29.70 2.97-19.74 2.54-39.34 6.08-58.83 10.19-19.47 4.16-38.80 9.05-57.85 14.87-19.07 5.75-37.93 12.17-56.58 19.14l-.15-.99 43.00 1.5 42.99 1.64 42.99 1.84 21.49.93 21.49 1.02-.00.12-21.50-.59-21.50-.69-43.00-1.40-43-1.60-42.99-1.75-2.60-.10 2.45-.88c18.75-6.76 37.68-13.00 56.80-18.64 19.13-5.56 38.37-10.79 57.81-15.20 19.43-4.46 39.09-7.95 58.88-10.38 9.89-1.22 19.83-2.14 29.78-2.69 4.97-.28 9.96-.47 14.94-.50 4.98-.03 9.97.00 14.94.35l-.00.12z M221.86 50.47c-1.13.09-2.26.23-3.41.28l-3.41.14-6.83.27-13.67.46-13.67.38c-2.28.04-4.53.17-6.86.09l-6.84-.14c-9.12-.23-18.23-.59-27.35-.77-9.12-.22-18.24-.29-27.36-.35-18.24-.12-36.48-.27-54.72-.65-18.24-.33-36.48-.82-54.71-1.52l.00-.12c18.24-.06 36.49.08 54.73.38 18.24.25 36.48.74 54.72 1.24 9.11.25 18.23.50 27.36.59 9.12.14 18.24.09 27.36.18l6.84.09c.56.00 1.16.02 1.68.01l1.71-.04 3.42-.06 13.68-.24 13.68-.16 6.84-.03 3.42-.00c1.12-.00 2.27-.10 3.41-.14l.00.12z M49.37 32.61c.44 1.47.59 2.96.53 4.45-.06.74-.24 1.49-.26 2.23-.03.74.05 1.48.17 2.22.13.74.24 1.48.28 2.22.05.74.12 1.48.11 2.22-.02 1.48-.14 2.97-.50 4.46l-.12.00c-.42-1.47-.59-2.96-.67-4.44-.03-.74.00-1.48.03-2.23.01-.74.09-1.48.19-2.23.09-.74.15-1.49.09-2.23-.05-.74-.26-1.48-.35-2.22-.12-1.48-.02-2.97.36-4.46l.12-.00z M176.36 36.29c-.09.26-.33.28-.51.36-.19.06-.38.11-.57.15-.38.08-.78.14-1.17.21-.78.13-1.57.22-2.35.33-1.57.20-3.15.37-4.73.52-3.16.31-6.33.41-9.50.37-3.17-.06-6.33-.24-9.50-.38-1.58-.07-3.16-.13-4.75-.24-.79-.06-1.58-.13-2.37-.23-.39-.05-.79-.12-1.19-.22-.20-.05-.40-.11-.61-.20-.10-.04-.21-.10-.32-.19-.10-.08-.25-.23-.26-.48 0-.24.15-.41.25-.50.10-.09.21-.15.31-.20.20-.10.40-.17.60-.24.39-.12.79-.21 1.19-.29.79-.16 1.58-.26 2.38-.35 1.58-.17 3.17-.28 4.76-.35 3.17-.14 6.34-.20 9.51-.16 3.17.05 6.34.16 9.50.48 1.58.15 3.15.32 4.73.53.78.11 1.57.20 2.35.33.39.06.78.12 1.17.21.19.04.38.09.57.15.17.08.41.09.51.37l-.00.01zm-.11-.01c-.02-.11-.26-.20-.43-.25-.18-.05-.37-.10-.56-.14-.38-.07-.77-.14-1.16-.18-.78-.08-1.57-.15-2.36-.18-1.57-.06-3.15-.09-4.74-.08l-9.47-.01c-3.15-.00-6.31-.04-9.46.01-1.57.04-3.15.07-4.71.17-.78.05-1.56.11-2.33.21-.38.05-.76.11-1.12.2-.18.04-.35.09-.50.16l-.22.09c-.04-.09.05.07.20.13.14.07.32.14.50.19.35.11.74.19 1.12.27.76.15 1.54.25 2.33.32 1.56.15 3.14.25 4.72.28 3.16.05 6.32-.1 9.48-.20 3.15-.09 6.31-.14 9.47-.12 1.58-.00 3.16-.02 4.74-.09.79-.02 1.57-.10 2.36-.18.39-.04.78-.11 1.16-.18.19-.04.38-.08.56-.14.16-.05.40-.13.43-.26v.01z"/>
</svg>
