<svg width="162" height="160" viewbox="0 0 162 160" xmlns="http://www.w3.org/2000/svg">
    <path fill="white" d="M23.07 83.68l-4.55-2.42-.26.50 4.55 2.42.26-.50zm-5.57 11.62l-4.74-2.01-.22.52 4.74 2.01.22-.52zm9.38-18.35l-4.41-2.65-.29.48 4.42 2.65.28-.49zm1.35-2.19l-4.37-2.73-.30.48 4.37 2.73.30-.48zm-7.52 13.51l-4.63-2.26-.25.51 4.63 2.26.25-.51zm-2.18 4.67l-4.71-2.09-.23.52 4.71 2.1.22-.52zm11.09-20.35l-4.32-2.80-.31.47 4.32 2.80.31-.47zm-7.76 13.37l-4.59-2.33-.25.50 4.59 2.34.25-.51zm2.43-4.54l-4.51-2.5-.27.49 4.51 2.49.27-.49zm19.46-27.21l-3.81-3.43-.38.42 3.82 3.43.37-.42zm-5.02 5.88l-4.00-3.23-.35.44 4.00 3.24.35-.44zm3.31-3.95l-3.87-3.37-.37.43 3.87 3.36.37-.43zm3.46-3.82l-3.76-3.50-.38.42 3.75 3.50.38-.41zm-9.95 11.83l-4.11-3.09-.34.45 4.10 3.09.34-.45zm-1.53 2.07l-4.16-3.02-.33.46 4.16 3.02.33-.45zm3.10-4.11l-4.05-3.16-.35.44 4.05 3.17.34-.45zm-6.07 8.33l-4.26-2.87-.31.47 4.27 2.88.31-.47zm-15.48 29.65l-4.82-1.85-.20.53 4.82 1.85.20-.53zm-8.99 37.49l-5.21-.54-.05.56 5.21.54.05-.56zm.63-5.11l-5.18-.72-.07.56 5.18.72.08-.56zm-.33 2.55l-5.20-.63-.06.56 5.20.64.06-.56zm.71-5.10l-5.16-.81-.09.56 5.15.81.09-.56zm.89-5.07l-5.11-.99-.10.55 5.11.99.10-.55zm-2.33 17.87l-5.25-.36-.03.56 5.25.36.03-.56zm-.26 5.14l-5.27-.18-.02.56 5.27.18.02-.56zm.10-2.57l-5.26-.27-.02.56 5.26.27.02-.56zm3.00-22.97l-5.09-1.08-.11.55 5.08 1.08.12-.55zm7.53-24.62l-4.78-1.93-.21.52 4.78 1.93.21-.52zm-3.53 9.69l-4.92-1.6-.17.54 4.92 1.6.17-.54zm34.31-56.94l-3.69-3.56-.39.41 3.68 3.56.39-.40zm-35.09 59.39l-4.95-1.51-.16.54 4.95 1.51.16-.54zm1.59-4.90l-4.88-1.68-.18.53 4.88 1.68.19-.53zm-4.27 14.86l-5.06-1.16-.12.55 5.06 1.17.12-.55zm1.93-7.48l-4.97-1.42-.15.54 4.97 1.42.15-.54zm-1.32 4.98l-5.04-1.25-.13.55 5.04 1.25.13-.55zm88.11-101.24l-1.87-4.63-.52.21 1.87 4.63.52-.21zm22.14-6.96l-1.11-4.84-.55.13 1.11 4.84.55-.12zm-2.51.60l-1.20-4.83-.55.14 1.20 4.82.55-.13zm-4.99 1.31l-1.37-4.78-.54.16 1.37 4.78.54-.16zm10.02-2.47l-1.03-4.86-.55.12 1.03 4.86.55-.12zm-14.96 3.99l-1.54-4.74-.53.18 1.53 4.74.54-.17zm2.46-.77l-1.45-4.76-.54.17 1.45 4.75.54-.16zm-9.76 3.35l-1.79-4.66-.52.20 1.78 4.66.53-.20zm4.85-1.76l-1.62-4.71-.53.19 1.62 4.71.53-.18zm19.94-5.30l-.95-4.89-.55.11.95 4.88.55-.10zm23.07-2.56l-.17-4.99-.56.02.17 4.99.56-.02zm-5.15.25l-.34-4.98-.56.04.34 4.97.56-.03zm-137.56 144.72l-5.28-.09-.01.56 5.29.09.00-.56zm140.14-144.88l-.26-4.98-.56.03.26 4.97.56-.03zm5.16-.15l-.08-5.00-.56.01.08 4.99.56-.00zm-20.56 1.73l-.77-4.91-.56.09.77 4.91.56-.09zm2.55-.36l-.69-4.93-.56.08.69 4.93.56-.07zm2.56-.33l-.60-4.95-.56.07.60 4.94.56-.06zm2.56-.29l-.52-4.95-.56.06.52 4.95.56-.06zm-73.55 28.92l-3.06-4.06-.45.34 3.06 4.06.45-.34zm-4.06 3.18l-3.21-3.96-.44.36 3.21 3.96.44-.35zm2.01-1.61l-3.13-4.01-.44.35 3.13 4.01.45-.35zm-11.67 10.15l-3.56-3.68-.40.39 3.56 3.68.40-.39zm15.79-13.25l-2.99-4.11-.45.33 2.98 4.11.46-.33zm-12.02 9.73l-3.42-3.80-.42.38 3.42 3.79.42-.37zm-1.89 1.74l-3.49-3.74-.41.39 3.49 3.74.41-.38zm43.05-27.99l-1.95-4.60-.52.22 1.95 4.60.52-.22zm-39.22 24.53l-3.35-3.85-.42.37 3.35 3.85.42-.37zm14.31-10.99l-2.83-4.20-.47.32 2.83 4.20.46-.32zm15.55-9.17l-2.28-4.47-.50.26 2.27 4.47.50-.25zm2.31-1.15l-2.20-4.51-.51.25 2.20 4.51.51-.25zm4.67-2.18l-2.03-4.57-.51.23 2.03 4.57.52-.22zm-9.27 4.53l-2.36-4.44-.5.27 2.36 4.44.50-.26zm-11.11 6.55l-2.76-4.25-.47.31 2.76 4.24.47-.31zm2.17-1.38l-2.68-4.29-.48.30 2.68 4.29.48-.30zm2.19-1.35l-2.60-4.33-.48.29 2.6 4.32.49-.28zm4.46-2.58l-2.44-4.41-.49.28 2.44 4.40.49-.27zm-71.75 116.66l-9.11-.79-.05.56 9.11.79.05-.56zm12.93-48.24l-8.20-3.82-.24.51 8.20 3.82.24-.51zm-8.59 23.55l-8.77-2.35-.14.54 8.77 2.35.14-.54zm21.17-45.25l-7.40-5.18-.32.46 7.41 5.18.32-.46zm80.68-56.45l-2.29-8.57-.54.15 2.29 8.57.54-.14zm24.73-4.30l-.77-8.85-.56.05.77 8.85.56-.05zm-48.33 12.87l-3.76-8.08-.51.24 3.76 8.07.51-.24zm-21.72 12.55l-5.14-7.35-.46.33 5.14 7.34.46-.32zm-19.22 16.12l-6.37-6.37-.4.40 6.37 6.37.4-.40zm101.49-40.99l.32.00v-9.97h-.56v9.97l.24-.00zm-123.46 71.30l-8.76-5.06-.28.49 8.76 5.05.28-.49zm-10.55 22.54l-9.52-3.46-.19.53 9.52 3.46.18-.53zm24.86-42.90l-7.75-6.50-.36.43 7.75 6.50.36-.43zm-31.30 66.94l-10.03-1.76-.1.55 10.03 1.77.09-.56zm48.91-84.53l-6.48-7.72-.43.36 6.48 7.72.43-.36zm67.05-31.23l-1.73-9.80-.55.1 1.72 9.80.56-.09zm-24.08 6.41l-3.40-9.36-.53.19 3.40 9.36.53-.19zm-22.57 10.52l-5.01-8.67-.49.28 5.01 8.67.49-.28zm-71.45 123.71l-.00-.10h-10.25v.56h10.26v-.46zm132.15-131.14c-4.08.32-8.12.83-12.09 1.52l-.41-2.32-.56.09.41 2.32c-7.44 1.32-14.67 3.28-21.63 5.81l-.80-2.22-.53.19.81 2.22c-7.06 2.59-13.84 5.78-20.27 9.5l-1.18-2.04-.49.28 1.17 2.03c-6.47 3.77-12.59 8.09-18.30 12.88l-1.51-1.80-.43.36 1.51 1.80c-5.70 4.82-10.99 10.12-15.80 15.84l-1.79-1.50-.36.43 1.80 1.51c-4.77 5.72-9.07 11.84-12.82 18.32l-2.03-1.17-.28.49 2.03 1.17c-3.69 6.43-6.86 13.22-9.43 20.28l-2.20-.80-.18.53 2.20.80c-2.50 6.95-4.44 14.17-5.75 21.61l-2.30-.40-.09.56 2.29.40c-1.23 7.23-1.88 14.66-1.88 22.25l.00.02h-2.32v.23l.00.10h-.00v.23h5.26v-.56h-2.35l-.00-.02c0-7.54.64-14.94 1.87-22.15l2.33.41.09-.56-2.32-.41c1.30-7.40 3.22-14.59 5.72-21.51l2.21.80.18-.53-2.21-.80c2.56-7.03 5.71-13.78 9.39-20.19l2.04 1.18.28-.49-2.04-1.18c3.74-6.45 8.02-12.55 12.77-18.24l1.80 1.51.36-.43-1.81-1.52c4.79-5.69 10.05-10.96 15.73-15.77l1.52 1.81.43-.36-1.51-1.81c5.68-4.76 11.77-9.06 18.22-12.82l1.18 2.05.48-.28-1.18-2.04c6.40-3.70 13.15-6.87 20.18-9.45l.80 2.21.53-.19-.80-2.21c6.92-2.51 14.12-4.46 21.53-5.78l.40 2.32.56-.09-.41-2.33c3.95-.68 7.96-1.19 12.03-1.52l-.04-.57zm-127.72 133.22c-.67 0-1.22-.06-1.63-.20-.41-.14-.73-.34-.95-.62-.22-.27-.33-.62-.33-1.03 0-.30.06-.57.18-.80.12-.23.30-.42.53-.57.23-.15.51-.27.85-.35.33-.08.78-.12 1.35-.12.67 0 1.21.06 1.62.20.41.13.73.34.95.61.22.27.33.62.33 1.04 0 .55-.19.98-.59 1.30-.47.37-1.25.56-2.32.56zm0-.72c.94 0 1.56-.11 1.87-.33.31-.22.46-.49.46-.81 0-.32-.15-.59-.46-.81-.31-.21-.93-.33-1.87-.33-.94 0-1.56.11-1.87.33-.31.22-.46.49-.46.82 0 .32.13.58.41.77.34.24.99.36 1.93.36zm16.91 2.49v.70h-4.48c.16.16.32.39.48.66.16.27.28.52.36.74h-.68c-.18-.39-.40-.73-.67-1.03-.26-.29-.51-.50-.76-.62v-.45h5.75zm-3.10-2.88c-.10.29-.25.50-.45.64s-.43.21-.71.21c-.41 0-.76-.14-1.05-.44-.28-.3-.42-.69-.42-1.19 0-.5.14-.90.43-1.20.29-.30.64-.45 1.06-.45.26 0 .49.06.69.20.19.14.34.35.45.63.11-.35.3-.61.55-.80.25-.18.56-.27.91-.27.48 0 .90.17 1.23.52.33.34.5.80.5 1.36s-.16 1.02-.50 1.36c-.33.34-.75.52-1.25.52-.37 0-.68-.09-.93-.28-.25-.18-.42-.46-.51-.80zm-1.19.14c.27 0 .49-.08.66-.26.17-.17.25-.40.25-.68 0-.27-.08-.49-.25-.66-.17-.17-.38-.26-.62-.26-.25 0-.47.08-.65.26-.17.17-.26.4-.26.66 0 .26.08.49.25.66.17.17.37.26.61.26zm2.64.22c.2 0 .39-.04.58-.14.18-.09.33-.23.43-.42.10-.18.15-.39.15-.60 0-.33-.10-.61-.32-.83-.21-.21-.49-.32-.82-.32-.33 0-.61.11-.84.33-.22.22-.33.50-.33.84 0 .33.10.60.32.82.21.21.49.32.82.32zm-1.17-3.73c-.67 0-1.22-.06-1.63-.20-.41-.14-.73-.34-.95-.62-.22-.27-.33-.62-.33-1.03 0-.30.06-.57.18-.80.12-.23.30-.42.53-.57.23-.15.51-.27.85-.35.33-.08.78-.12 1.35-.12.67 0 1.21.06 1.62.20.41.13.73.34.95.61.22.27.33.62.33 1.04 0 .55-.19.98-.59 1.30-.47.37-1.25.56-2.32.56zm0-.72c.94 0 1.56-.11 1.87-.33.31-.22.46-.49.46-.81 0-.32-.15-.59-.46-.81-.31-.21-.93-.33-1.87-.33-.94 0-1.56.11-1.87.33-.31.22-.46.49-.46.82 0 .32.13.58.41.77.34.24.99.36 1.93.36zm-4.03-42.85l.63.23-1.29 3.55c-.16-.05-.30-.13-.43-.24-.20-.18-.39-.41-.55-.69-.16-.28-.33-.67-.50-1.16-.26-.75-.50-1.29-.70-1.6-.20-.30-.43-.50-.68-.59-.26-.09-.51-.08-.76.04s-.42.33-.53.63c-.11.31-.11.60.00.86.12.26.35.45.68.57l-.31.65c-.48-.23-.81-.54-.96-.94-.15-.4-.14-.85.04-1.36.18-.51.47-.87.87-1.07.39-.19.80-.21 1.23-.06.21.07.40.19.58.36.17.16.34.38.49.67.15.28.34.74.57 1.36.18.51.32.85.39 1.01.07.15.16.29.25.40l.96-2.64zm-1.76-1.44c-.63-.23-1.12-.48-1.46-.75-.34-.27-.56-.57-.68-.91-.11-.33-.10-.69.03-1.08.10-.28.25-.52.45-.69.19-.17.42-.29.69-.35.27-.06.57-.07.92-.04.34.03.78.14 1.31.34.63.22 1.11.47 1.45.75.34.27.56.57.68.91.11.33.10.69-.03 1.09-.18.51-.52.85-1.00 1.02-.57.19-1.37.10-2.38-.26zm.24-.67c.88.32 1.50.43 1.87.33.36-.1.60-.30.71-.60.11-.30.05-.61-.16-.92-.21-.31-.76-.63-1.64-.95-.88-.32-1.51-.43-1.87-.33-.36.10-.60.30-.71.61-.11.30-.07.59.11.86.24.34.81.68 1.69 1.00zm14.3 10.2l-.24.66-4.21-1.53c.09.21.17.47.22.79.05.31.08.58.08.82l-.63-.23c-.03-.43-.13-.83-.27-1.19-.14-.36-.31-.65-.50-.84l.15-.42 5.40 1.96zm-2.19-6.6l-.18.67c-.28-.03-.49-.02-.65.04-.25.10-.42.29-.52.55-.07.21-.08.41-.02.61.07.26.23.50.48.73.24.22.63.43 1.17.63-.18-.24-.29-.50-.32-.77-.03-.27-.00-.53.08-.78.16-.44.45-.75.89-.94.43-.19.91-.19 1.42-.00.33.12.62.31.86.56.23.25.38.53.44.84.06.31.03.62-.08.95-.2.55-.56.92-1.09 1.12-.53.2-1.26.13-2.19-.20-1.04-.37-1.72-.84-2.05-1.40-.28-.48-.33-1.01-.12-1.57.15-.42.39-.72.73-.91.33-.18.72-.22 1.16-.13zm1.33 3.54c.22.08.46.11.70.09.24-.02.45-.1.62-.23.17-.13.29-.29.36-.48.10-.27.07-.56-.07-.84-.15-.28-.42-.49-.80-.63-.37-.13-.70-.14-.98-.02-.28.12-.48.33-.59.63-.10.29-.09.59.04.87.13.28.38.49.72.61zm.34-3.78c-.63-.23-1.12-.48-1.46-.75-.34-.27-.56-.57-.68-.91-.11-.33-.10-.69.03-1.09.10-.28.25-.52.45-.69.19-.17.42-.29.69-.35.27-.06.57-.07.92-.04.34.03.78.14 1.31.34.63.22 1.11.48 1.45.75.34.27.56.57.68.90.11.33.10.7-.03 1.09-.18.51-.52.85-1.00 1.02-.57.19-1.37.10-2.38-.26zm.24-.68c.88.32 1.50.43 1.87.33.36-.10.60-.30.71-.60.11-.30.05-.61-.16-.92-.21-.31-.76-.63-1.64-.95-.88-.32-1.51-.43-1.87-.33-.36.10-.60.30-.71.61-.11.30-.07.59.12.86.24.34.80.68 1.69 1.00zm-5.08-19.40l.27-.65c.38.12.70.15.95.07.24-.08.44-.24.58-.48.16-.28.20-.58.12-.89-.08-.31-.27-.55-.56-.72-.27-.16-.56-.20-.85-.12-.28.07-.51.26-.67.54-.06.11-.12.27-.18.46l-.49-.37.06-.09c.14-.26.21-.53.20-.81-.01-.28-.16-.51-.44-.67-.22-.12-.45-.16-.68-.09-.23.06-.42.21-.55.45-.13.23-.17.47-.11.72.05.24.22.47.49.69l-.46.54c-.36-.31-.58-.66-.65-1.05-.07-.39.00-.78.23-1.17.15-.27.35-.48.60-.64.24-.16.50-.24.77-.24.27-.00.51.05.74.18.21.12.37.29.48.51.11.21.15.46.12.75.23-.25.50-.4.81-.43.30-.03.62.03.94.21.43.25.70.61.82 1.10.11.48.04.97-.23 1.45-.25.43-.59.72-1.01.86-.42.13-.85.10-1.28-.09zm1.08-4.50c-.58-.33-1.02-.67-1.31-.99-.28-.32-.45-.66-.51-1.01-.05-.34.01-.70.22-1.06.15-.26.34-.47.56-.60.22-.14.47-.21.75-.23.27-.01.58.02.91.11.33.09.74.28 1.23.56.58.33 1.01.66 1.30.99.28.32.46.66.51 1.01.06.35-.01.70-.22 1.07-.27.47-.66.75-1.16.82-.60.08-1.36-.13-2.29-.67zm.36-.62c.81.47 1.41.68 1.79.65.38-.03.65-.19.81-.47.16-.28.16-.59.00-.94-.16-.34-.64-.75-1.45-1.22-.81-.47-1.41-.68-1.79-.65-.37.03-.65.19-.81.48-.16.27-.17.57-.03.87.18.38.67.81 1.49 1.28zm12.22 12.57l-.35.60-3.88-2.24c.05.22.08.5.08.81.00.31-.01.59-.05.82l-.58-.34c.03-.43.01-.84-.06-1.22-.08-.38-.19-.69-.35-.92l.22-.39 4.98 2.87zm-.39-2.31l.31-.67c.33.13.63.15.89.07.25-.08.45-.24.59-.48.16-.29.20-.60.09-.93-.10-.33-.33-.60-.70-.81-.34-.20-.67-.26-.99-.18-.31.07-.56.27-.74.59-.11.19-.17.39-.17.60-.00.21.04.4.13.57l-.40.52-2.27-1.95 1.42-2.46.58.33-1.14 1.98 1.17 1.03c-.03-.41.04-.79.22-1.11.25-.43.61-.71 1.08-.83.47-.12.94-.05 1.41.22.44.25.76.61.93 1.06.21.55.16 1.1-.14 1.65-.26.44-.6.74-1.01.88-.41.14-.84.11-1.28-.09zm1.07-4.51c-.58-.33-1.02-.67-1.31-1-.28-.32-.45-.66-.51-1.01-.05-.35.01-.70.22-1.06.15-.26.34-.47.56-.60.22-.13.47-.21.75-.23.27-.01.58.02.91.11.33.09.74.28 1.23.56.58.33 1.01.66 1.30.99.28.32.46.66.51 1.01.06.35-.01.70-.22 1.07-.27.47-.66.75-1.16.83-.6.08-1.36-.13-2.29-.67zm.36-.62c.81.47 1.41.68 1.79.65.38-.03.65-.19.81-.47.16-.28.16-.59.00-.93-.16-.34-.64-.75-1.45-1.22-.81-.47-1.41-.68-1.79-.65-.37.03-.65.19-.81.47-.16.28-.17.57-.03.87.17.38.67.81 1.49 1.28zm.96-20.63l-1.05-.88-1.59 1.90-.49-.41-1.16-4.38.36-.43 2.84 2.38.49-.59.49.41-.49.59 1.05.88-.45.53zm-1.54-1.29l-1.97-1.66.82 3.03 1.15-1.37zm.79-2.20c-.51-.43-.89-.83-1.11-1.21-.22-.37-.33-.73-.33-1.09.00-.35.14-.69.40-1.01.19-.23.41-.40.66-.50.24-.09.50-.12.77-.09.27.03.56.12.88.27.31.15.68.40 1.12.77.51.43.88.83 1.11 1.20.22.37.33.73.33 1.08-.00.35-.14.69-.41 1.01-.35.42-.78.62-1.29.61-.60-.01-1.32-.37-2.14-1.06zm.46-.55c.72.60 1.27.92 1.64.95.38.03.67-.07.88-.32.20-.24.26-.55.16-.92s-.50-.85-1.22-1.45c-.72-.60-1.27-.92-1.65-.95-.37-.03-.67.08-.88.33-.20.24-.26.53-.18.85.11.41.52.91 1.24 1.52zm9.97 14.52l-.45.53-3.43-2.88c.01.23-.00.50-.05.82-.05.31-.11.58-.19.80l-.52-.43c.11-.42.16-.82.14-1.22-.01-.39-.07-.71-.18-.97l.29-.34 4.40 3.69zm2.60-3.10l-1.05-.88-1.59 1.90-.49-.41-1.16-4.38.36-.43 2.84 2.38.49-.59.49.41-.49.59 1.05.88-.45.53zm-1.54-1.29l-1.97-1.66.82 3.03 1.15-1.37zm.79-2.20c-.52-.43-.89-.83-1.11-1.21-.22-.37-.33-.73-.33-1.08.00-.35.14-.69.41-1.01.19-.23.41-.40.66-.50.24-.09.50-.12.77-.09.27.03.56.12.88.27.31.15.68.40 1.12.77.51.43.88.83 1.11 1.20.22.37.33.73.33 1.09-.00.35-.14.69-.41 1.01-.35.42-.78.62-1.29.61-.60-.01-1.32-.37-2.14-1.06zm.46-.55c.72.60 1.27.92 1.64.95.38.03.67-.07.88-.32.20-.24.26-.55.16-.92-.09-.36-.50-.85-1.22-1.45-.72-.60-1.27-.92-1.65-.95-.37-.03-.67.07-.88.33-.20.24-.26.53-.18.85.11.41.52.91 1.24 1.52zm1.71-20.17l.52-.52c.27.24.54.36.81.37.27.01.51-.07.72-.25.26-.21.39-.5.41-.84.01-.34-.11-.68-.38-1.00-.25-.30-.54-.47-.86-.51-.32-.03-.62.06-.9.30-.17.14-.29.31-.37.51-.07.19-.09.39-.07.58l-.56.35-1.46-2.61 2.18-1.83.43.51-1.75 1.47.75 1.37c.10-.40.30-.72.59-.97.38-.32.81-.46 1.30-.41.48.04.90.27 1.25.69.33.39.50.83.51 1.32.01.59-.21 1.09-.70 1.49-.4.33-.82.49-1.26.48-.44-.01-.83-.18-1.17-.52zm2.55-3.87c-.43-.51-.73-.98-.89-1.38-.15-.40-.20-.78-.13-1.13.06-.34.25-.65.57-.92.23-.19.48-.32.73-.37.25-.05.51-.04.78.04.26.08.53.22.82.42.28.20.60.52.96.95.43.51.72.97.88 1.37.16.40.20.78.14 1.13-.06.34-.25.65-.58.92-.42.35-.88.48-1.37.38-.59-.12-1.23-.59-1.93-1.41zm.55-.46c.60.72 1.09 1.12 1.46 1.22.36.09.67.04.92-.16.24-.20.35-.50.32-.88-.03-.38-.35-.93-.95-1.64-.60-.72-1.09-1.13-1.46-1.22-.36-.09-.67-.03-.93.17-.24.20-.35.47-.32.81.03.42.35.99.96 1.71zm7.27 16.14l-.53.45-2.88-3.43c-.02.23-.09.49-.19.79-.10.3-.21.55-.33.75l-.43-.52c.18-.39.30-.78.35-1.17.05-.39.05-.72-.01-.98l.34-.29 3.69 4.40zm.41-2.31l.47-.52c.31.25.60.38.86.39.26.01.49-.07.71-.25.25-.21.39-.47.42-.80.02-.32-.06-.61-.28-.87-.20-.24-.45-.38-.75-.40-.29-.02-.56.06-.81.27-.10.08-.21.21-.33.37l-.33-.52.09-.06c.22-.19.38-.42.46-.69.08-.27.02-.53-.18-.78-.16-.19-.37-.30-.61-.32-.24-.01-.46.06-.68.24-.20.17-.32.38-.35.63-.02.25.04.52.22.81l-.61.35c-.23-.41-.32-.82-.25-1.21.06-.39.27-.73.62-1.02.23-.2.50-.33.79-.40.28-.06.55-.05.81.03.25.08.46.23.63.43.15.18.25.40.28.64.02.24-.01.49-.13.75.30-.15.61-.20.91-.13.30.06.57.24.80.52.32.38.45.82.39 1.32-.05.5-.29.93-.72 1.28-.38.32-.80.47-1.24.46-.44-.01-.84-.19-1.18-.52zm2.56-3.86c-.43-.51-.73-.98-.89-1.38-.15-.40-.20-.78-.13-1.13.06-.34.25-.65.57-.92.23-.19.48-.32.73-.37.25-.05.51-.04.78.04.26.08.53.22.82.42.28.20.60.52.96.95.43.51.72.97.88 1.37.16.40.20.78.14 1.13-.06.34-.25.65-.58.92-.42.35-.88.48-1.37.38-.59-.12-1.23-.59-1.93-1.42zm.55-.46c.60.72 1.09 1.12 1.45 1.22.36.09.67.04.92-.16.24-.20.35-.50.32-.88-.03-.38-.35-.93-.95-1.64-.60-.72-1.09-1.13-1.46-1.22-.36-.09-.67-.03-.93.17-.24.20-.35.47-.32.81.03.42.36.99.96 1.71zm7.11-23.57l-.57.39c-.19-.20-.36-.33-.53-.38-.26-.07-.51-.04-.76.09-.19.11-.33.26-.41.45-.11.25-.14.54-.1.87.04.33.20.74.48 1.24.01-.30.10-.57.25-.80.14-.22.34-.41.57-.54.40-.23.83-.28 1.29-.15.45.13.82.43 1.09.91.18.31.27.63.29.98.02.34-.04.65-.19.93-.15.27-.37.50-.67.67-.50.29-1.02.34-1.56.15-.53-.18-1.05-.71-1.54-1.56-.55-.95-.77-1.75-.67-2.39.09-.55.39-.98.92-1.28.39-.22.77-.30 1.14-.22.37.07.69.29.97.64zm-1.25 3.57c.12.20.28.38.48.52.2.14.40.21.62.22.21.00.41-.03.59-.14.25-.14.41-.37.48-.69.06-.31-.00-.65-.21-1.00-.19-.34-.44-.56-.74-.65-.29-.09-.58-.05-.85.10-.27.15-.45.39-.52.69-.08.30-.02.62.16.94zm2.69-2.67c-.33-.58-.55-1.09-.63-1.52-.08-.42-.06-.80.06-1.13.12-.33.36-.60.73-.80.26-.15.53-.23.79-.24.26-.00.51.05.76.17.24.12.49.31.73.56.24.24.50.61.78 1.10.33.58.54 1.08.63 1.51.08.42.06.80-.05 1.13-.12.33-.36.60-.73.81-.47.27-.95.32-1.42.13-.56-.22-1.11-.80-1.65-1.73zm.62-.36c.47.81.87 1.30 1.22 1.46.34.16.66.15.93-.00.27-.16.43-.43.47-.81.03-.38-.18-.97-.65-1.78-.47-.81-.87-1.30-1.22-1.46-.34-.15-.66-.15-.94.00-.27.16-.43.40-.46.74-.03.42.18 1.04.65 1.85zm4.25 17.03l-.60.35-2.24-3.88c-.06.22-.17.47-.33.75-.15.27-.31.50-.45.68l-.34-.58c.24-.35.43-.72.55-1.09.12-.37.17-.70.15-.97l.39-.22 2.87 4.98zm4.42-3.33l.33.58-3.27 1.89c-.08-.14-.14-.29-.17-.46-.04-.27-.03-.56.02-.89.05-.32.18-.72.36-1.21.28-.75.44-1.31.48-1.68.04-.36-.00-.66-.13-.89-.14-.24-.34-.39-.61-.46-.27-.06-.54-.02-.81.14-.29.17-.47.39-.55.67-.07.27-.02.57.15.88l-.66.29c-.22-.49-.27-.94-.13-1.34.14-.40.44-.74.91-1.01.47-.27.92-.35 1.35-.25.42.10.75.35.98.74.11.19.18.41.21.65.02.23.01.51-.05.84-.06.32-.21.79-.43 1.41-.18.51-.30.86-.34 1.02-.04.17-.06.33-.06.47l2.43-1.40zm-.42-2.23c-.33-.58-.55-1.09-.63-1.52-.08-.42-.06-.80.06-1.13.12-.33.36-.60.73-.81.26-.15.53-.23.79-.24.26-.00.51.04.76.17.24.12.49.31.73.56.24.24.50.61.78 1.10.33.58.54 1.08.63 1.51.08.42.06.80-.05 1.13-.12.33-.36.60-.73.81-.47.27-.95.32-1.42.13-.56-.22-1.11-.80-1.65-1.73zm.62-.36c.47.81.87 1.3 1.22 1.45.34.16.65.15.93-.00.27-.16.43-.43.47-.81.03-.38-.18-.97-.65-1.78-.47-.81-.88-1.30-1.22-1.46-.34-.15-.66-.15-.94.00-.27.16-.43.41-.46.74-.03.42.18 1.04.65 1.85zm7.38-21.51l-.23-.63 3.48-1.26.18.51c-.21.48-.37 1.09-.48 1.82-.11.72-.15 1.44-.10 2.14.03.49.12 1.02.28 1.57l-.68.24c-.14-.42-.25-.96-.30-1.62-.05-.65-.04-1.31.05-1.98.09-.66.24-1.24.43-1.75l-2.63.96zm4.87.51c-.23-.63-.35-1.17-.36-1.60-.01-.43.07-.80.25-1.10.18-.30.46-.52.86-.67.28-.10.56-.14.82-.10.25.03.5.14.72.30.22.16.43.39.62.68.19.28.39.69.58 1.22.22.63.35 1.16.36 1.6.01.43-.07.80-.25 1.11-.18.30-.46.53-.86.67-.51.18-.99.15-1.42-.11-.51-.31-.96-.98-1.32-1.99zm.67-.24c.32.88.64 1.43.95 1.65.31.21.62.27.92.16.30-.11.50-.35.60-.71.10-.36-.01-.99-.33-1.87-.32-.88-.64-1.43-.95-1.65-.31-.21-.62-.26-.93-.15-.30.11-.49.32-.58.65-.10.41-.00 1.05.32 1.94zm1.67 17.51l-.66.24-1.53-4.21c-.10.20-.25.43-.46.68-.20.24-.39.44-.57.59l-.23-.63c.30-.30.55-.63.74-.98.18-.34.29-.65.32-.93l.42-.15 1.96 5.40zm3.62-1.31l-.66.24-1.53-4.21c-.10.21-.25.43-.46.68-.20.24-.39.44-.57.59l-.23-.63c.30-.30.55-.63.74-.98.18-.34.29-.66.32-.93l.42-.15 1.96 5.40zm.72-3.27c-.23-.63-.35-1.17-.36-1.60-.01-.43.07-.80.25-1.10.18-.30.46-.52.86-.67.28-.10.56-.14.82-.10.25.03.5.14.72.30.22.16.43.39.62.68.19.28.39.69.58 1.22.22.63.35 1.16.36 1.60.01.43-.07.80-.25 1.11-.18.30-.46.53-.86.67-.51.18-.99.15-1.42-.11-.51-.32-.96-.98-1.32-1.99zm.67-.24c.32.88.63 1.43.95 1.65.31.21.62.27.92.16.30-.11.50-.35.60-.72.10-.36-.01-.99-.33-1.87-.32-.88-.64-1.43-.95-1.65-.31-.21-.62-.26-.93-.15-.30.11-.49.32-.58.64-.10.41-.00 1.05.32 1.94zm12.65-18.33c-.30-.05-.54-.16-.71-.33-.17-.17-.28-.39-.33-.66-.07-.41.01-.78.26-1.11.24-.33.61-.54 1.10-.62.49-.08.91-.01 1.26.21.35.23.56.55.63.96.04.26.01.50-.08.71-.10.21-.28.40-.54.55.36.05.66.18.88.40.22.21.36.50.43.85.08.48-.01.91-.29 1.30-.28.38-.70.63-1.26.72-.55.09-1.03.01-1.43-.25-.39-.27-.64-.65-.72-1.14-.06-.36-.02-.69.11-.97.14-.28.37-.49.70-.64zm-.34-1.14c.04.26.17.47.37.60.20.13.43.18.71.13.26-.04.47-.17.61-.36.14-.19.18-.41.14-.66-.04-.25-.17-.45-.37-.59-.20-.14-.44-.18-.70-.14-.26.04-.46.17-.61.37-.14.2-.19.41-.15.65zm.23 2.64c.03.19.11.38.24.54.12.16.29.28.49.35.20.06.41.08.62.04.33-.05.58-.21.76-.46.17-.25.23-.54.18-.86-.05-.33-.21-.59-.47-.77-.26-.17-.55-.23-.89-.18-.32.05-.57.21-.75.46-.17.25-.23.54-.17.86zm3.47-1.80c-.11-.66-.14-1.21-.07-1.64.06-.43.21-.78.44-1.04.23-.26.55-.43.96-.51.30-.05.57-.03.82.04.25.08.47.22.65.42.18.20.35.46.49.77.14.31.26.75.36 1.31.11.66.14 1.20.07 1.63-.06.43-.21.78-.44 1.05-.23.27-.55.44-.96.51-.54.09-1.00-.02-1.38-.35-.45-.40-.77-1.13-.96-2.19zm.71-.12c.16.92.38 1.52.65 1.79.27.26.56.37.88.31.31-.05.55-.25.72-.60.16-.34.16-.97-.00-1.90-.16-.92-.38-1.52-.65-1.79-.27-.26-.56-.37-.89-.31-.31.05-.54.23-.69.53-.17.38-.18 1.04-.02 1.96zm-1.78 17.49l-.69.12-.77-4.41c-.13.18-.33.38-.57.59-.24.20-.46.36-.66.48l-.11-.67c.35-.25.65-.53.89-.84.24-.31.40-.59.48-.86l.44-.07.99 5.66zm1.28-3.09c-.11-.66-.14-1.21-.07-1.64.06-.43.21-.78.44-1.04.23-.26.55-.43.96-.51.30-.05.57-.04.82.04.25.08.47.22.65.42.18.20.35.46.49.77.14.31.26.75.36 1.31.11.66.14 1.20.07 1.63-.06.43-.21.78-.44 1.05-.23.27-.55.44-.96.51-.54.09-1.00-.02-1.38-.35-.45-.40-.77-1.13-.96-2.19zm.71-.12c.16.92.38 1.52.65 1.79.27.26.56.37.88.31.31-.05.55-.25.72-.60.16-.34.16-.98-.00-1.90-.16-.92-.38-1.52-.65-1.79-.27-.26-.56-.37-.89-.31-.31.05-.54.23-.69.53-.17.38-.18 1.04-.02 1.96zm3.67-.64c-.11-.66-.14-1.21-.07-1.64.06-.43.21-.78.44-1.04.23-.27.55-.43.96-.51.30-.05.57-.03.82.04.25.08.47.22.65.42.19.20.35.46.49.77.14.31.26.75.36 1.31.11.66.14 1.20.07 1.63-.06.43-.21.78-.44 1.05-.23.27-.55.44-.96.51-.54.09-1.00-.02-1.38-.35-.45-.40-.77-1.13-.96-2.19zm.71-.12c.16.92.38 1.52.65 1.79.27.26.56.37.88.31.31-.05.55-.25.72-.60.16-.34.16-.98-.00-1.90-.16-.92-.38-1.52-.65-1.79-.27-.26-.56-.37-.89-.31-.31.05-.54.23-.69.53-.17.38-.18 1.04-.02 1.96zm10.3-6.21l1.35-.12c.11.63.33 1.09.65 1.38.32.28.73.43 1.24.43.43 0 .81-.09 1.13-.29.32-.19.59-.46.80-.79.20-.33.38-.77.52-1.34.14-.56.21-1.13.21-1.71l-.00-.28c-.28.44-.66.81-1.15 1.09-.48.27-1.01.41-1.58.41-.94 0-1.75-.34-2.40-1.03-.65-.68-.98-1.59-.98-2.71 0-1.16.34-2.09 1.02-2.80.68-.70 1.54-1.06 2.57-1.06.74 0 1.42.20 2.04.60.61.40 1.08.97 1.40 1.71.32.74.48 1.81.48 3.22 0 1.46-.15 2.62-.47 3.49-.31.86-.79 1.52-1.41 1.98-.62.45-1.36.68-2.20.68-.89 0-1.62-.24-2.19-.74s-.90-1.19-1.02-2.09zm5.75-5.05c0-.80-.21-1.44-.64-1.92-.43-.47-.94-.71-1.55-.71-.62 0-1.16.25-1.63.76-.46.51-.69 1.17-.69 1.98 0 .73.22 1.32.66 1.77.44.45.98.68 1.62.68.65 0 1.18-.22 1.60-.68.42-.45.63-1.08.63-1.89zm2.93 2.05c0-1.35.14-2.44.41-3.27.27-.82.69-1.46 1.24-1.91.55-.44 1.24-.67 2.07-.67.61 0 1.15.12 1.61.37.46.24.84.60 1.14 1.07.30.46.53 1.03.71 1.70.17.67.25 1.57.25 2.70 0 1.34-.13 2.43-.41 3.25-.27.82-.68 1.46-1.23 1.91-.55.45-1.24.67-2.08.67-1.10 0-1.97-.39-2.60-1.18-.75-.95-1.13-2.50-1.13-4.65zm1.44 0c0 1.88.22 3.13.66 3.75.44.62.98.93 1.62.93s1.18-.31 1.62-.93c.44-.62.66-1.87.66-3.75 0-1.88-.22-3.13-.66-3.75-.44-.61-.98-.93-1.64-.93-.64 0-1.16.27-1.54.82-.48.7-.72 1.98-.72 3.86zm-135.71 110.20l-.12.69-4.41-.77c.13.19.25.44.36.74.11.29.18.56.22.79l-.67-.11c-.11-.42-.27-.79-.48-1.13-.20-.33-.42-.58-.64-.74l.07-.44 5.66.99zm-2.46-2.26c-.66-.11-1.19-.28-1.57-.48-.38-.21-.66-.46-.83-.77-.17-.30-.22-.67-.15-1.08.05-.30.16-.55.32-.76.16-.20.37-.36.62-.47.25-.10.55-.17.89-.20.34-.02.79.01 1.35.10.66.11 1.18.27 1.56.48.38.20.66.46.83.77.17.31.22.67.15 1.08-.09.54-.36.93-.81 1.17-.53.29-1.33.34-2.38.15zm.12-.71c.92.16 1.56.16 1.90.00.34-.16.54-.40.60-.72.05-.31-.05-.61-.32-.88-.27-.27-.86-.48-1.79-.65-.92-.16-1.56-.16-1.90-.00-.34.16-.54.40-.60.72-.05.31.03.59.27.83.30.3.91.53 1.84.69zm15.88 7.66l-.12.69-4.41-.77c.13.19.25.44.36.74.11.29.18.56.22.79l-.67-.11c-.11-.42-.27-.79-.48-1.13-.20-.33-.42-.58-.64-.74l.07-.44 5.66.99zm-4.58-2.68l-.66-.11.64-3.65.53.09c.31.42.76.87 1.33 1.33.57.46 1.17.85 1.81 1.16.44.22.94.4 1.50.53l-.12.71c-.44-.08-.96-.26-1.56-.54-.59-.27-1.16-.62-1.69-1.03-.52-.41-.96-.83-1.3-1.25l-.48 2.76zm2.88-3.96c-.66-.11-1.19-.28-1.57-.48-.38-.20-.66-.46-.83-.77-.17-.31-.22-.66-.15-1.08.05-.30.16-.55.32-.76.16-.20.37-.36.62-.47.25-.10.55-.17.89-.20.34-.02.79.00 1.35.10.66.11 1.18.27 1.56.48.38.20.66.46.83.77.17.31.22.67.15 1.08-.09.54-.36.93-.81 1.17-.53.29-1.33.34-2.39.15zm.12-.71c.92.16 1.56.16 1.90.00.34-.16.54-.40.60-.72.05-.31-.05-.61-.32-.88-.27-.27-.86-.48-1.79-.65-.92-.16-1.56-.16-1.90-.00-.34.16-.54.40-.60.72-.05.31.03.59.27.83.30.29.91.53 1.84.69zm101.32-90.20l17.19 97.53c-.85.16-1.67.38-2.48.66l-33.86-93.05c6.16-2.23 12.56-3.96 19.15-5.14zm-19.68 5.33l33.87 93.05c-.80.30-1.58.65-2.33 1.06l-49.48-85.71c5.69-3.29 11.7-6.11 17.95-8.41zm-18.44 8.70l49.48 85.72c-.73.43-1.44.92-2.11 1.45l-63.58-75.77c5.05-4.23 10.47-8.05 16.20-11.40zm-16.64 11.77l63.58 75.77c-.64.56-1.25 1.16-1.81 1.81l-75.75-63.56c4.26-5.05 8.94-9.75 13.98-14.02zm-14.35 14.45l75.74 63.56c-.54.66-1.02 1.37-1.46 2.10l-85.63-49.44c3.32-5.73 7.13-11.16 11.35-16.22zm-11.64 16.71l85.62 49.43c-.41.74-.77 1.52-1.08 2.33l-92.90-33.81c2.28-6.25 5.08-12.25 8.36-17.95zm83.34 57.90h-98.76c.00-6.72.58-13.30 1.67-19.72l97.31 17.15c-.13.83-.22 1.69-.23 2.56zm-96.99-20.28c1.16-6.58 2.87-12.97 5.09-19.13l92.89 33.81c-.28.80-.51 1.62-.67 2.48l-97.31-17.15zm114.70 20.28h-17.20c.15-9.41 7.78-17.03 17.20-17.16v17.16zm-2.53-17.44l-17.19-97.54c6.41-1.11 13.00-1.7 19.73-1.71v99.03c-.86.01-1.70.09-2.53.22zm3.16-102.21l-.28-.00-.46.00v2.38c-7 .01-13.33.60-19.77 1.72l-.38-2.34-.54.09.42 2.35c-6.62 1.18-13.05 2.92-19.24 5.16l-.81-2.24-.53.19.81 2.24c-6.28 2.31-12.31 5.15-18.04 8.45l-1.19-2.06-.48.28 1.19 2.06c-5.76 3.36-11.20 7.2-16.28 11.46l-1.53-1.82-.43.36 1.53 1.82c-5.07 4.29-9.77 9.01-14.06 14.09l-1.82-1.52-.36.43 1.82 1.52c-4.24 5.09-8.06 10.54-11.41 16.30l-2.05-1.18-.28.49 2.05 1.18c-3.29 5.73-6.10 11.76-8.40 18.04l-2.23-.81-.18.53 2.23.81c-2.22 6.18-3.95 12.61-5.11 19.23l-2.33-.41-.09.56 2.33.40c-1.10 6.44-1.68 12.81-1.68 19.81h-2.05v.58l119.74.04v-120.27z"/>
</svg>
