<svg width="152" height="187" viewbox="0 0 152 187" xmlns="http://www.w3.org/2000/svg">
    <g fill="white">
        <path d="M151.48 110.04c.02 9.81-1.83 19.62-5.39 28.81-3.55 9.19-8.96 17.71-15.82 24.92-6.84 7.21-15.21 13.08-24.45 16.94-9.22 3.92-19.28 5.83-29.27 5.71-9.99-.14-19.93-2.31-29.03-6.29-4.55-1.99-8.89-4.42-12.95-7.26-4.07-2.81-7.86-6.0-11.32-9.52-6.94-7.01-12.53-15.35-16.39-24.44-3.83-9.09-6.0-18.93-6.13-28.87-.16-9.91 1.54-19.94 5.30-29.21 3.71-9.27 9.29-17.83 16.35-24.95 7.04-7.14 15.50-12.89 24.76-16.80 9.26-3.93 19.33-5.88 29.41-5.87 10.02.06 20.11 2.04 29.32 6.02 9.24 3.92 17.59 9.82 24.43 17.05 6.84 7.22 12.26 15.75 15.81 24.95 3.55 9.19 5.41 19.0 5.36 28.82zm-.39-.0c-.03-4.88-.51-9.75-1.51-14.53-1.02-4.76-2.47-9.44-4.46-13.87-3.93-8.88-9.63-16.93-16.63-23.54-13.98-13.23-32.85-20.88-51.96-20.71-4.73.02-9.50.45-14.16 1.38-4.66.92-9.23 2.30-13.64 4.08-8.81 3.58-16.92 8.93-23.72 15.63-6.78 6.71-12.31 14.72-16.08 23.53-3.75 8.81-5.88 18.36-6.03 28.01-.14 9.64 1.53 19.37 5.21 28.35 3.63 8.99 9.15 17.23 16.05 24.05 3.45 3.40 7.26 6.44 11.32 9.08 4.07 2.61 8.4 4.82 12.89 6.58 8.98 3.53 18.62 5.21 28.19 5.04 9.58-.10 19.09-2.04 27.95-5.63 2.21-.89 4.38-1.90 6.5-3.02 2.12-1.09 4.20-2.29 6.21-3.59 4.01-2.61 7.83-5.55 11.32-8.88 6.98-6.62 12.68-14.68 16.61-23.57 1.99-4.43 3.43-9.11 4.46-13.88.99-4.77 1.46-9.65 1.49-14.53z"/>
        <path d="M91.69 18.65c-.03 4.10-1.11 8.41-3.87 11.94-1.37 1.73-3.17 3.20-5.24 4.13-2.06.94-4.37 1.36-6.62 1.24-2.25-.11-4.45-.76-6.38-1.80-1.93-1.03-3.64-2.39-5.07-3.97-2.89-3.12-4.74-7.16-5.08-11.56-.15-2.14.07-4.42.81-6.54.72-2.12 1.93-4.10 3.47-5.77 3.05-3.37 7.59-5.50 12.29-5.41 2.25.02 4.60.54 6.65 1.53 2.06.98 3.85 2.48 5.22 4.23 2.74 3.55 3.84 7.86 3.83 11.98zm-.35-.0c-.01-2.03-.50-4.06-1.43-5.83-.91-1.78-2.25-3.29-3.74-4.47-1.49-1.19-3.16-2.07-4.87-2.69-1.72-.62-3.49-.93-5.34-.90-3.54.04-7.15 1.39-9.81 3.94-2.63 2.55-4.40 6.07-4.74 9.97-.15 1.90.05 3.92.74 5.77.67 1.85 1.76 3.58 3.19 4.95 1.43 1.36 3.17 2.38 5.02 2.95 1.84.57 3.75.75 5.61.63 3.71-.24 7.22-1.59 10.23-3.98 1.48-1.20 2.83-2.71 3.74-4.50.93-1.77 1.42-3.80 1.41-5.84z"/>
        <g stroke="white" fill="white">
            <path d="M73.27 19.37v15.91h6.18v-15.91h-6.18z"/>
            <path d="M83.93 22.82c0 1.52-1.13 2.75-2.53 2.75h-10.78c-1.40 0-2.53-1.23-2.53-2.75v-9.65c0-1.52 1.13-2.75 2.53-2.75h10.78c1.40 0 2.53 1.23 2.53 2.75v9.65z"/>
            <path d="M132.22 42.82l-6.90 8.42 3.27 2.68 6.90-8.42-3.27-2.68z"/>
            <path d="M136.34 49.27c-.66.80-1.79.96-2.54.35l-5.70-4.68c-.74-.60-.80-1.75-.14-2.55l4.19-5.10c.66-.80 1.8-.96 2.54-.35l5.70 4.68c.74.60.80 1.75.14 2.56l-4.19 5.11z"/>
        </g>
        <path d="M77.03 42.82v20.68" stroke="white" stroke-width="2.75"/>
        <path d="M77.03 157.28v20.68" stroke="white" stroke-width="2.75"/>
        <path d="M146.67 109.01h-20.68" stroke="white" stroke-width="2.75"/>
        <path d="M29.45 109.01h-20.68" stroke="white" stroke-width="2.75"/>
    </g>
</svg>
