<svg width="17" height="120" viewbox="0 0 17 120" xmlns="http://www.w3.org/2000/svg" preserveAspectRatio="xMinYMin">
    <path fill="white" d="M14.92 65.66c-1.38 1.80-3.76 2.90-6.08 2.77-2.34-.10-4.42-1.35-5.88-2.94-1.47-1.60-2.45-3.66-2.61-5.92-.19-2.20.57-4.61 2.18-6.31 1.57-1.72 3.87-2.82 6.30-2.79 1.12.03 2.35.26 3.4.78 1.06.49 1.98 1.26 2.68 2.16 1.41 1.80 1.98 4.02 1.98 6.13-.01 2.10-.56 4.31-1.97 6.12zm-.88-11.41c-1.56-1.19-3.35-1.87-5.26-1.83-1.79.02-3.66.71-5.01 2.03-1.34 1.32-2.24 3.11-2.41 5.12-.17 1.95.54 4.08 2.03 5.48 1.47 1.43 3.57 1.96 5.45 1.83 1.90-.12 3.70-.81 5.24-2.05 1.54-1.20 2.66-3.19 2.62-5.31.01-2.10-1.11-4.08-2.66-5.28z M9.79 13.16c.23 4.25.29 8.50.33 12.75l-.05 6.37c-.07 2.12-.09 4.25-.21 6.37-.19 4.25-.48 8.50-1.04 12.76-.58-4.25-.89-8.50-1.10-12.75-.13-2.12-.16-4.25-.24-6.37l-.08-6.37c.01-4.25.06-8.50.27-12.75.19-4.25.48-8.50 1.04-12.76.58 4.25.88 8.50 1.10 12.75z M11.63 74.08c-.09 1.22-.24 2.43-.31 3.67-.10.70-.55 1.25-1.08 1.62-.54.36-1.18.59-1.85.64-.65.04-1.38-.04-2.00-.40-.62-.34-1.19-.97-1.31-1.80l-.02-.3-.00-.22-.01-.45-.03-.91c-.02-.61-.01-1.22-.01-1.83.04-2.44.19-4.88.57-7.33h.12c.39 2.44.54 4.88.60 7.32.00.61.01 1.22-.01 1.83l-.02.91-.01.45-.00.22.00.15c.05.83 1.08 1.58 2.18 1.67.54.03 1.14-.03 1.63-.32.48-.27.87-.78.91-1.30-.02-1.19-.22-2.43-.30-3.65-.1-2.44.01-4.88.43-7.33l.12.00c.42 2.44.55 4.88.46 7.32z"/>
</svg>
