<svg width="799" height="154" viewbox="0 0 799 154" xmlns="http://www.w3.org/2000/svg">
    <g stroke="white" fill="none">
        <path d="M.671 77.395c12.111 5.105 167.144 51.604 272 51.604h488.119s16.854-7.824 17.285-51h.021l-.011-.834.011-.834h-.021c-.432-43.176-17.285-51-17.285-51h-488.119c-104.857-.001-259.889 46.958-272 52.064"/>
        <path d="M782.687 85.891c0 12.703-8.557 23-19.108 23h-420.384c-10.553 0-19.108-10.297-19.108-23v-19.996c0-12.703 8.556-23 19.108-23h420.383c10.552 0 19.108 10.297 19.108 23v19.996h.001z"/>
        <path d="M791.445 77.391c0 8.283-5.872 15-13.113 15h-393.4c-7.242 0-13.114-6.717-13.114-15 0-8.283 5.872-15 13.114-15h393.4c7.241 0 13.113 6.716 13.113 15z"/>
        <path d="M786.53 76.664c0 2.209-2.563 4-5.725 4h-166.972c-3.162 0-5.726-1.791-5.726-4s2.563-4 5.726-4h166.973c3.161 0 5.724 1.791 5.724 4z"/>
        <path d="M727 75.33l26.438-41.33h44.119l-13.625 41.332-56.932-.002z"/>
        <path d="M727 77l26.438 41.332h44.119l-13.625-41.334-56.932.002z"/>
        <path d="M275.186 129l27.279 23.723h26.034l-19.719-23.725-33.594.002z"/>
        <path d="M275.186 24.721l27.279-23.721h26.034l-19.719 23.723-33.594-.002z"/>
        <path d="M63.43 59.33v36" fill="white"/>
        <path d="M302.573 91.15v-28.975c0-2.783 2.183-5.42 6.072-7.773-32.093.703-57.385 8.469-57.385 17.953v10.963c0 9.947 27.812 18.012 62.116 18.012h.076c-6.856-2.896-10.879-6.402-10.879-10.18z"/>
        <path d="M65.377 75.33l182.964-9v20l-182.964-7v-4z"/>
    </g>
</svg>
