<svg width="20" height="17" viewbox="0 0 20 17" xmlns="http://www.w3.org/2000/svg">
    <path d="M17.338 10.152c-.775-.835-1.484-1.729-2.18-2.635-.687-.912-1.361-1.844-1.932-2.846-.578-.997-1.105-2.04-1.462-3.17l.846.154c-1.913 2.518-3.87 5.003-5.856 7.464-2.013 2.441-4.022 4.886-6.147 7.239 1.748-2.646 3.613-5.202 5.473-7.761 1.887-2.539 3.804-5.054 5.764-7.536.166-.211.471-.247.683-.082.08.063.135.146.163.236.325 1.032.771 2.05 1.3 3.028.533.976 1.097 1.946 1.72 2.882.612.945 1.291 1.845 1.949 2.764.664.915 1.369 1.8 2.077 2.689-.845-.762-1.625-1.59-2.398-2.426zm0 0" fill="white"/>
</svg>
