<svg width="590" height="57" viewbox="0 0 590 57" xmlns="http://www.w3.org/2000/svg">
    <path fill="white" d="M54.94 29.1c.01 7.10-2.67 14.25-7.69 19.48-2.47 2.63-5.53 4.70-8.87 6.13-3.33 1.44-6.99 2.08-10.61 2.07-3.62-.05-7.22-.83-10.52-2.28-3.29-1.45-6.29-3.53-8.81-6.07-2.49-2.56-4.54-5.56-5.93-8.87-1.37-3.30-2.17-6.86-2.21-10.47-.18-7.20 2.70-14.48 7.85-19.64 2.55-2.58 5.62-4.67 8.98-6.09 3.35-1.43 7.02-2.11 10.65-2.10 3.63.02 7.29.70 10.63 2.16 3.33 1.44 6.38 3.54 8.86 6.17 4.98 5.24 7.74 12.38 7.67 19.49zm-.14 0c-.04-3.53-.74-7.07-2.17-10.29-1.42-3.22-3.49-6.14-6.02-8.53-5.06-4.81-11.91-7.56-18.83-7.53-6.90.01-13.76 2.79-18.69 7.67-4.95 4.85-7.91 11.68-8.02 18.69-.16 6.99 2.66 14.08 7.72 18.99 4.98 5.00 12.05 7.65 18.99 7.52 6.95-.04 13.79-2.84 18.84-7.66 2.53-2.40 4.59-5.32 6.02-8.54 1.43-3.22 2.15-6.76 2.15-10.30z M51.09 29.10c.01 6.1-2.29 12.24-6.60 16.72-4.24 4.53-10.49 7.17-16.72 7.05-3.11-.04-6.20-.72-9.03-1.96-2.83-1.24-5.40-3.03-7.56-5.21-2.14-2.2-3.90-4.78-5.09-7.61-1.18-2.83-1.86-5.89-1.90-8.99-.15-6.18 2.32-12.43 6.74-16.85 2.19-2.22 4.82-4.01 7.71-5.23 2.88-1.22 6.01-1.83 9.16-1.83 6.25-.01 12.48 2.64 16.73 7.18 4.3 4.49 6.61 10.63 6.59 16.73zm-.12 0c.03-6.10-2.66-12.07-7.03-16.17-4.34-4.13-10.22-6.49-16.17-6.44-5.91-.01-11.81 2.37-16.04 6.56-4.25 4.16-6.79 10.02-6.88 16.05-.13 6 2.28 12.08 6.63 16.30 4.28 4.29 10.35 6.57 16.30 6.45 5.97-.05 11.83-2.44 16.18-6.57 2.17-2.06 3.94-4.57 5.17-7.33 1.23-2.76 1.84-5.80 1.85-8.84z M589.24 27.95c.01 7.10-2.67 14.25-7.69 19.48-2.47 2.63-5.53 4.70-8.87 6.13-3.33 1.44-6.99 2.08-10.61 2.07-3.62-.05-7.22-.83-10.52-2.28-3.29-1.45-6.29-3.53-8.81-6.07-2.49-2.56-4.54-5.56-5.93-8.87-1.37-3.30-2.17-6.86-2.21-10.47-.18-7.20 2.70-14.48 7.85-19.64 2.55-2.58 5.62-4.67 8.98-6.09 3.35-1.43 7.02-2.11 10.65-2.10 3.63.02 7.29.70 10.63 2.16 3.33 1.44 6.38 3.54 8.86 6.17 4.98 5.24 7.74 12.38 7.67 19.49zm-.14 0c-.04-3.53-.74-7.07-2.17-10.29-1.42-3.22-3.49-6.14-6.02-8.53-5.06-4.81-11.91-7.56-18.83-7.53-6.90.01-13.76 2.79-18.69 7.67-4.94 4.85-7.91 11.68-8.02 18.69-.16 6.99 2.65 14.08 7.72 18.99 4.98 5.00 12.05 7.65 18.99 7.52 6.95-.04 13.79-2.84 18.84-7.66 2.53-2.40 4.59-5.32 6.02-8.54 1.43-3.22 2.15-6.76 2.15-10.30z M585.39 27.95c.01 6.1-2.29 12.24-6.60 16.72-4.24 4.53-10.49 7.17-16.72 7.05-3.11-.04-6.20-.72-9.03-1.96-2.83-1.24-5.40-3.03-7.56-5.21-2.14-2.2-3.90-4.78-5.09-7.61-1.18-2.83-1.86-5.89-1.90-8.99-.15-6.18 2.32-12.43 6.74-16.85 2.19-2.22 4.82-4.01 7.71-5.23 2.88-1.22 6.01-1.83 9.16-1.83 6.25-.01 12.48 2.64 16.73 7.18 4.29 4.49 6.61 10.63 6.59 16.73zm-.12 0c.03-6.10-2.66-12.07-7.03-16.17-4.34-4.13-10.22-6.49-16.17-6.44-5.91-.01-11.81 2.37-16.03 6.56-4.25 4.16-6.79 10.02-6.88 16.05-.13 6 2.28 12.08 6.63 16.30 4.28 4.29 10.35 6.57 16.30 6.45 5.97-.05 11.83-2.44 16.18-6.57 2.17-2.06 3.94-4.57 5.17-7.33 1.23-2.76 1.84-5.80 1.85-8.84z M574.21 27.96c-.00 3.16-1.10 6.39-3.33 8.81-2.18 2.44-5.50 3.87-8.82 3.77-1.62-.04-3.27-.43-4.74-1.11-1.47-.68-2.80-1.64-3.92-2.79-2.25-2.29-3.63-5.41-3.73-8.69-.13-3.23 1.13-6.58 3.46-8.94 2.30-2.38 5.59-3.81 8.96-3.78 3.30.00 6.64 1.44 8.81 3.90 2.21 2.43 3.32 5.66 3.31 8.83zm-.12-.00c.02-3.16-1.47-6.22-3.76-8.25-2.29-2.03-5.23-3.20-8.27-3.17-2.96.00-5.96 1.17-8.12 3.29-2.16 2.10-3.50 5.04-3.61 8.14-.12 3.06 1.1 6.22 3.34 8.39 2.24 2.18 5.37 3.27 8.41 3.17 3.01-.06 5.98-1.25 8.26-3.30 2.27-2.04 3.78-5.09 3.74-8.27z M567.06 26.33c-.01 1.30-.35 2.69-1.25 3.80-.87 1.13-2.36 1.79-3.80 1.70-1.45-.08-2.76-.84-3.67-1.83-.92-.98-1.55-2.27-1.65-3.67-.13-1.39.36-2.89 1.39-3.94.99-1.06 2.45-1.73 3.94-1.71 1.47.01 2.95.68 3.82 1.83.89 1.12 1.24 2.50 1.24 3.82zm-.12-.00c.01-1.31-.71-2.53-1.68-3.25-.97-.71-2.10-1.12-3.25-1.09-1.13.01-2.27.42-3.12 1.21-.84.79-1.42 1.90-1.53 3.12-.11 1.22.33 2.53 1.27 3.39.93.87 2.23 1.19 3.39 1.09 1.17-.07 2.28-.49 3.26-1.22.96-.73 1.70-1.94 1.67-3.26z"/>
</svg>
