<svg width="189" height="15" viewbox="0 0 189 15" xmlns="http://www.w3.org/2000/svg" preserveAspectRatio="xMinYMin">
    <path fill="white" d="M134.02 7.85c.03 2.11-1.05 4.23-2.84 5.41-.88.59-1.92.95-2.99 1.02l-3.15.05-12.58.22c-8.38.16-16.77.18-25.16.12-8.38-.07-16.77-.27-25.16-.29-4.19-.04-8.38-.01-12.58.0-1.05-.0-2.08.02-3.15 0-1.09-.05-2.16-.40-3.08-.99-1.85-1.17-3.02-3.34-3.02-5.54-.04-2.20 1.08-4.42 2.94-5.66.92-.62 2.02-1.0 3.14-1.09 1.10-.03 2.11-.03 3.17-.04l12.58-.10c8.38-.04 16.77-.09 25.16-.05 8.38-.0 16.77.05 25.16.22l12.58.23 3.15.05c1.07.07 2.11.43 3 1.03 1.78 1.18 2.87 3.29 2.83 5.41zm-.12-.0c.0-2.08-1.09-4.12-2.83-5.24-.86-.56-1.87-.89-2.89-.95-1.03-.02-2.09.01-3.14.02l-12.58.23c-8.38.17-16.77.22-25.16.22-8.38.03-16.77-.01-25.16-.05l-12.58-.10c-1.03-.0-2.12-.03-3.11-.02-.97.04-1.93.35-2.75.89-1.66 1.05-2.71 3-2.72 4.99-.04 1.99.96 3.99 2.64 5.11.82.56 1.81.91 2.81.98 1.02.03 2.09.01 3.13.02 4.19.02 8.38.04 12.58.0 8.38-.01 16.77-.21 25.16-.29 8.38-.05 16.77-.03 25.16.12l12.58.22c1.04.01 2.10.05 3.13.02 1.02-.05 2.03-.38 2.89-.95 1.74-1.12 2.83-3.16 2.83-5.24z M45.76 1.73c-7.69.98-15.38 1.78-23.08 2.55-3.85.34-7.71.65-11.54 1.21-1.91.28-3.81.64-5.68 1.09-.93.22-1.86.48-2.75.82-.44.17-.87.36-1.25.60-.18.11-.35.26-.42.39-.05.12-.04.14.06.28.24.24.70.44 1.12.59.43.15.89.27 1.35.38.92.21 1.87.38 2.81.54 1.89.30 3.81.53 5.72.76 3.83.42 7.69.73 11.54 1.06 7.70.68 15.42 1.28 23.13 2.07l-.0.12c-7.75-.01-15.5-.33-23.23-.89-3.86-.30-7.72-.70-11.57-1.22-1.92-.25-3.84-.56-5.76-.94-.95-.19-1.91-.41-2.85-.69-.47-.14-.94-.29-1.41-.49-.46-.20-.93-.39-1.36-.85-.10-.12-.20-.28-.23-.49-.02-.20.03-.41.13-.55.19-.28.42-.43.64-.57.45-.26.92-.43 1.39-.59.93-.30 1.88-.52 2.83-.74 1.89-.41 3.81-.73 5.72-1.07 3.82-.65 7.64-1.31 11.49-1.83 7.69-.94 15.43-1.51 23.18-1.67l.0.12z M129.39 1.60c5.03.02 10.05.22 15.07.48 5.01.30 10.04.58 15.04 1.11 5.0.53 9.98 1.21 14.97 1.86 2.49.33 4.98.64 7.47 1.05 1.24.21 2.48.43 3.72.72.61.15 1.23.31 1.84.57.30.13.61.26.92.58.15.14.30.5.17.79-.11.27-.28.41-.43.52-.61.42-1.23.59-1.84.8-.61.18-1.23.33-1.85.47-1.24.28-2.48.49-3.73.68-2.49.38-4.99.69-7.50.94-5.01.51-10.02.92-15.04 1.22-10.04.54-20.09.84-30.15.8l-.0-.14c10.02-.84 20.05-1.45 30.06-2.14 5.0-.33 10.02-.62 15.01-1.04 2.49-.21 4.99-.43 7.47-.73 1.23-.15 2.47-.31 3.70-.52.61-.10 1.22-.22 1.81-.37.58-.14 1.2-.32 1.63-.59.10-.06.17-.14.18-.16l-.03-.06c-.11-.14-.39-.30-.65-.43-.53-.25-1.13-.44-1.72-.61-1.19-.34-2.42-.60-3.65-.82-2.46-.45-4.95-.81-7.44-1.09-4.99-.55-10.01-.82-15.02-1.16-10.01-.75-20.02-1.57-30.02-2.61l.0-.14z"/>
</svg>
